<svg width="99" height="247" viewBox="0 0 99 247" fill="none" xmlns="http://www.w3.org/2000/svg">
<path d="M-143.079 173.044C-142.243 172.208 -142.243 170.852 -143.079 170.015C-143.916 169.179 -145.272 169.179 -146.108 170.015C-146.945 170.852 -146.945 172.208 -146.108 173.044C-145.272 173.881 -143.916 173.881 -143.079 173.044Z" fill="#0077FF"/>
<path d="M-118.636 197.488C-117.596 196.448 -117.596 194.763 -118.636 193.723C-119.675 192.684 -121.361 192.684 -122.4 193.723C-123.44 194.763 -123.44 196.448 -122.4 197.488C-121.361 198.527 -119.675 198.527 -118.636 197.488Z" fill="#0077FF"/>
<path d="M-94.5601 221.563C-93.5205 220.524 -93.5205 218.838 -94.5601 217.799C-95.5997 216.759 -97.2851 216.759 -98.3247 217.799C-99.3642 218.838 -99.3642 220.524 -98.3247 221.563C-97.2851 222.603 -95.5997 222.603 -94.5601 221.563Z" fill="#0077FF"/>
<path d="M-70.8521 245.271C-70.0156 244.435 -70.0156 243.079 -70.8521 242.242C-71.6885 241.406 -73.0447 241.406 -73.8812 242.242C-74.7177 243.079 -74.7177 244.435 -73.8812 245.271C-73.0447 246.108 -71.6885 246.108 -70.8521 245.271Z" fill="#0077FF"/>
<path d="M-142.712 125.26C-141.672 124.221 -141.672 122.535 -142.712 121.496C-143.751 120.456 -145.437 120.456 -146.476 121.496C-147.516 122.535 -147.516 124.221 -146.476 125.26C-145.437 126.3 -143.751 126.3 -142.712 125.26Z" fill="#0077FF"/>
<path d="M-117.918 150.054C-116.482 148.618 -116.482 146.29 -117.918 144.854C-119.354 143.418 -121.682 143.418 -123.118 144.854C-124.554 146.29 -124.554 148.618 -123.118 150.054C-121.682 151.49 -119.354 151.49 -117.918 150.054Z" fill="#0077FF"/>
<path d="M-93.1243 174.848C-91.2918 173.015 -91.2918 170.044 -93.1243 168.212C-94.9568 166.379 -97.9279 166.379 -99.7605 168.212C-101.593 170.044 -101.593 173.015 -99.7605 174.848C-97.9279 176.68 -94.9568 176.68 -93.1243 174.848Z" fill="#0077FF"/>
<path d="M-69.0486 198.923C-67.216 197.091 -67.216 194.12 -69.0486 192.287C-70.8811 190.455 -73.8522 190.455 -75.6847 192.287C-77.5172 194.12 -77.5172 197.091 -75.6847 198.923C-73.8522 200.756 -70.8811 200.756 -69.0486 198.923Z" fill="#0077FF"/>
<path d="M-45.6907 222.281C-44.2547 220.845 -44.2547 218.517 -45.6907 217.081C-47.1268 215.645 -49.455 215.645 -50.8911 217.081C-52.3271 218.517 -52.3271 220.845 -50.8911 222.281C-49.455 223.717 -47.1268 223.717 -45.6907 222.281Z" fill="#0077FF"/>
<path d="M-22.3329 245.639C-21.2933 244.6 -21.2933 242.914 -22.3328 241.875C-23.3724 240.835 -25.0579 240.835 -26.0974 241.875C-27.137 242.914 -27.137 244.6 -26.0974 245.639C-25.0579 246.679 -23.3724 246.679 -22.3329 245.639Z" fill="#0077FF"/>
<path d="M-143.079 76.7412C-142.243 75.9047 -142.243 74.5485 -143.079 73.712C-143.916 72.8755 -145.272 72.8755 -146.108 73.712C-146.945 74.5485 -146.945 75.9047 -146.108 76.7412C-145.272 77.5777 -143.916 77.5777 -143.079 76.7412Z" fill="#0077FF"/>
<path d="M-117.918 101.903C-116.482 100.467 -116.482 98.1382 -117.918 96.7022C-119.354 95.2661 -121.682 95.2661 -123.118 96.7022C-124.554 98.1382 -124.554 100.467 -123.118 101.903C-121.682 103.339 -119.354 103.339 -117.918 101.903Z" fill="#0077FF"/>
<path d="M-92.7654 127.055C-90.7346 125.024 -90.7346 121.732 -92.7654 119.701C-94.7961 117.67 -98.0886 117.67 -100.119 119.701C-102.15 121.732 -102.15 125.024 -100.119 127.055C-98.0886 129.086 -94.7961 129.086 -92.7654 127.055Z" fill="#0077FF"/>
<path d="M-67.604 152.217C-64.9737 149.586 -64.9737 145.322 -67.604 142.691C-70.2343 140.061 -74.4989 140.061 -77.1293 142.691C-79.7596 145.322 -79.7596 149.586 -77.1293 152.216C-74.4989 154.847 -70.2343 154.847 -67.604 152.217Z" fill="#0077FF"/>
<path d="M-43.5283 176.292C-40.8979 173.662 -40.8979 169.397 -43.5283 166.767C-46.1586 164.137 -50.4232 164.137 -53.0535 166.767C-55.6838 169.397 -55.6838 173.662 -53.0535 176.292C-50.4232 178.923 -46.1586 178.923 -43.5283 176.292Z" fill="#0077FF"/>
<path d="M-20.5381 199.282C-18.5074 197.252 -18.5074 193.959 -20.5381 191.928C-22.5689 189.898 -25.8614 189.898 -27.8922 191.928C-29.9229 193.959 -29.9229 197.252 -27.8922 199.282C-25.8614 201.313 -22.5689 201.313 -20.5381 199.282Z" fill="#0077FF"/>
<path d="M2.4608 222.281C3.89685 220.845 3.89685 218.517 2.4608 217.081C1.02477 215.645 -1.30351 215.645 -2.73956 217.081C-4.1756 218.517 -4.1756 220.845 -2.73956 222.281C-1.30351 223.717 1.02477 223.717 2.4608 222.281Z" fill="#0077FF"/>
<path d="M25.4509 245.271C26.2874 244.435 26.2874 243.079 25.451 242.242C24.6145 241.406 23.2583 241.406 22.4218 242.242C21.5853 243.079 21.5853 244.435 22.4218 245.271C23.2583 246.108 24.6145 246.108 25.4509 245.271Z" fill="#0077FF"/>
<path d="M-118.636 53.0331C-117.596 51.9936 -117.596 50.3081 -118.636 49.2686C-119.675 48.229 -121.361 48.229 -122.4 49.2686C-123.44 50.3081 -123.44 51.9936 -122.4 53.0331C-121.361 54.0727 -119.675 54.0727 -118.636 53.0331Z" fill="#0077FF"/>
<path d="M-93.1243 78.5447C-91.2918 76.7122 -91.2918 73.7411 -93.1243 71.9085C-94.9568 70.076 -97.9279 70.076 -99.7605 71.9085C-101.593 73.7411 -101.593 76.7122 -99.7605 78.5447C-97.9279 80.3772 -94.9568 80.3772 -93.1243 78.5447Z" fill="#0077FF"/>
<path d="M-67.604 104.065C-64.9737 101.435 -64.9737 97.1701 -67.604 94.5397C-70.2343 91.9094 -74.4989 91.9094 -77.1293 94.5397C-79.7596 97.1701 -79.7596 101.435 -77.1293 104.065C-74.4989 106.695 -70.2343 106.695 -67.604 104.065Z" fill="#0077FF"/>
<path d="M-42.0925 129.577C-38.6692 126.153 -38.6692 120.603 -42.0925 117.18C-45.5158 113.756 -51.066 113.756 -54.4893 117.18C-57.9126 120.603 -57.9126 126.153 -54.4893 129.577C-51.066 133 -45.5158 133 -42.0925 129.577Z" fill="#0077FF"/>
<path d="M-18.0167 153.652C-14.5934 150.229 -14.5934 144.679 -18.0167 141.255C-21.44 137.832 -26.9903 137.832 -30.4135 141.255C-33.8368 144.679 -33.8368 150.229 -30.4135 153.652C-26.9903 157.076 -21.44 157.076 -18.0167 153.652Z" fill="#0077FF"/>
<path d="M4.62325 176.292C7.25357 173.662 7.25357 169.397 4.62325 166.767C1.99292 164.137 -2.27168 164.137 -4.90201 166.767C-7.53233 169.397 -7.53233 173.662 -4.90201 176.292C-2.27168 178.923 1.99292 178.923 4.62325 176.292Z" fill="#0077FF"/>
<path d="M27.2545 198.923C29.087 197.091 29.087 194.12 27.2545 192.287C25.4219 190.455 22.4508 190.455 20.6183 192.287C18.7858 194.12 18.7858 197.091 20.6183 198.923C22.4508 200.756 25.4219 200.756 27.2545 198.923Z" fill="#0077FF"/>
<path d="M49.8944 221.563C50.934 220.524 50.934 218.838 49.8944 217.799C48.8549 216.759 47.1694 216.759 46.1298 217.799C45.0903 218.838 45.0903 220.524 46.1298 221.563C47.1694 222.603 48.8549 222.603 49.8944 221.563Z" fill="#0077FF"/>
<path d="M-94.5601 28.9574C-93.5205 27.9178 -93.5205 26.2324 -94.5601 25.1928C-95.5997 24.1533 -97.2851 24.1533 -98.3247 25.1928C-99.3642 26.2324 -99.3642 27.9178 -98.3247 28.9574C-97.2851 29.9969 -95.5997 29.9969 -94.5601 28.9574Z" fill="#0077FF"/>
<path d="M-69.0486 54.4689C-67.216 52.6364 -67.216 49.6653 -69.0486 47.8328C-70.8811 46.0003 -73.8522 46.0003 -75.6847 47.8328C-77.5172 49.6653 -77.5172 52.6364 -75.6847 54.4689C-73.8522 56.3015 -70.8811 56.3015 -69.0486 54.4689Z" fill="#0077FF"/>
<path d="M-43.5283 79.9892C-40.8979 77.3589 -40.8979 73.0943 -43.5283 70.464C-46.1586 67.8337 -50.4232 67.8337 -53.0535 70.464C-55.6838 73.0943 -55.6838 77.3589 -53.0535 79.9892C-50.4232 82.6196 -46.1586 82.6196 -43.5283 79.9892Z" fill="#0077FF"/>
<path d="M-18.0167 105.501C-14.5934 102.077 -14.5934 96.5272 -18.0167 93.104C-21.44 89.6807 -26.9903 89.6807 -30.4135 93.104C-33.8368 96.5272 -33.8368 102.077 -30.4135 105.501C-26.9903 108.924 -21.44 108.924 -18.0167 105.501Z" fill="#0077FF"/>
<path d="M6.05904 129.577C9.48233 126.153 9.48233 120.603 6.05904 117.18C2.63576 113.756 -2.91449 113.756 -6.33778 117.18C-9.76108 120.603 -9.76108 126.153 -6.33778 129.577C-2.91449 133 2.63576 133 6.05904 129.577Z" fill="#0077FF"/>
<path d="M28.699 152.216C31.3293 149.586 31.3293 145.322 28.699 142.691C26.0687 140.061 21.8041 140.061 19.1738 142.691C16.5434 145.322 16.5434 149.586 19.1738 152.216C21.8041 154.847 26.0687 154.847 28.699 152.216Z" fill="#0077FF"/>
<path d="M51.3302 174.848C53.1627 173.015 53.1627 170.044 51.3302 168.212C49.4977 166.379 46.5266 166.379 44.6941 168.212C42.8615 170.044 42.8615 173.015 44.6941 174.848C46.5266 176.68 49.4977 176.68 51.3302 174.848Z" fill="#0077FF"/>
<path d="M73.9702 197.488C75.0097 196.448 75.0097 194.763 73.9702 193.723C72.9306 192.684 71.2451 192.684 70.2056 193.723C69.166 194.763 69.166 196.448 70.2056 197.488C71.2451 198.527 72.9306 198.527 73.9702 197.488Z" fill="#0077FF"/>
<path d="M-70.8521 4.51394C-70.0156 3.67746 -70.0156 2.32126 -70.8521 1.48478C-71.6885 0.648293 -73.0447 0.64829 -73.8812 1.48477C-74.7177 2.32125 -74.7177 3.67745 -73.8812 4.51394C-73.0447 5.35042 -71.6885 5.35042 -70.8521 4.51394Z" fill="#0077FF"/>
<path d="M-45.6907 29.6753C-44.2547 28.2393 -44.2547 25.911 -45.6907 24.4749C-47.1268 23.0389 -49.455 23.0389 -50.8911 24.4749C-52.3271 25.911 -52.3271 28.2393 -50.8911 29.6753C-49.455 31.1113 -47.1268 31.1113 -45.6907 29.6753Z" fill="#0077FF"/>
<path d="M-20.5381 54.8279C-18.5074 52.7971 -18.5074 49.5046 -20.5381 47.4738C-22.5689 45.4431 -25.8614 45.4431 -27.8922 47.4738C-29.9229 49.5046 -29.9229 52.7971 -27.8922 54.8279C-25.8614 56.8587 -22.5689 56.8587 -20.5381 54.8279Z" fill="#0077FF"/>
<path d="M4.62325 79.9892C7.25357 77.3589 7.25357 73.0943 4.62325 70.464C1.99292 67.8337 -2.27168 67.8337 -4.90201 70.464C-7.53233 73.0943 -7.53233 77.3589 -4.90201 79.9892C-2.27168 82.6196 1.99292 82.6196 4.62325 79.9892Z" fill="#0077FF"/>
<path d="M28.699 104.065C31.3293 101.435 31.3293 97.1701 28.699 94.5398C26.0687 91.9094 21.8041 91.9094 19.1738 94.5398C16.5434 97.1701 16.5434 101.435 19.1738 104.065C21.8041 106.695 26.0687 106.695 28.699 104.065Z" fill="#0077FF"/>
<path d="M51.6891 127.055C53.7199 125.024 53.7199 121.732 51.6891 119.701C49.6584 117.67 46.3659 117.67 44.3351 119.701C42.3043 121.732 42.3043 125.024 44.3351 127.055C46.3659 129.086 49.6584 129.086 51.6891 127.055Z" fill="#0077FF"/>
<path d="M74.6881 150.054C76.1241 148.618 76.1241 146.29 74.6881 144.854C73.252 143.418 70.9237 143.418 69.4877 144.854C68.0517 146.29 68.0517 148.618 69.4877 150.054C70.9237 151.49 73.252 151.49 74.6881 150.054Z" fill="#0077FF"/>
<path d="M97.6782 173.044C98.5147 172.208 98.5147 170.852 97.6782 170.015C96.8417 169.179 95.4855 169.179 94.649 170.015C93.8126 170.852 93.8126 172.208 94.649 173.044C95.4855 173.881 96.8417 173.881 97.6782 173.044Z" fill="#0077FF"/>
<path d="M-22.3328 4.88164C-21.2933 3.84208 -21.2933 2.15663 -22.3329 1.11707C-23.3724 0.0775162 -25.0579 0.0775095 -26.0974 1.11707C-27.137 2.15663 -27.137 3.84208 -26.0974 4.88164C-25.0579 5.92119 -23.3724 5.9212 -22.3328 4.88164Z" fill="#0077FF"/>
<path d="M2.4608 29.6753C3.89685 28.2393 3.89685 25.911 2.4608 24.4749C1.02477 23.0389 -1.30351 23.0389 -2.73956 24.4749C-4.1756 25.911 -4.1756 28.2393 -2.73956 29.6753C-1.30351 31.1113 1.02477 31.1113 2.4608 29.6753Z" fill="#0077FF"/>
<path d="M27.2545 54.4689C29.087 52.6364 29.087 49.6653 27.2545 47.8328C25.4219 46.0003 22.4508 46.0003 20.6183 47.8328C18.7858 49.6653 18.7858 52.6364 20.6183 54.4689C22.4508 56.3015 25.4219 56.3015 27.2545 54.4689Z" fill="#0077FF"/>
<path d="M51.3302 78.5447C53.1627 76.7122 53.1627 73.7411 51.3302 71.9086C49.4977 70.076 46.5266 70.076 44.6941 71.9085C42.8615 73.7411 42.8615 76.7122 44.6941 78.5447C46.5266 80.3772 49.4977 80.3772 51.3302 78.5447Z" fill="#0077FF"/>
<path d="M74.6881 101.903C76.1241 100.467 76.1241 98.1382 74.6881 96.7022C73.252 95.2661 70.9237 95.2661 69.4877 96.7022C68.0517 98.1382 68.0517 100.467 69.4877 101.903C70.9237 103.339 73.252 103.339 74.6881 101.903Z" fill="#0077FF"/>
<path d="M98.0459 125.26C99.0855 124.221 99.0855 122.535 98.0459 121.496C97.0064 120.456 95.3209 120.456 94.2813 121.496C93.2418 122.535 93.2418 124.221 94.2813 125.26C95.3209 126.3 97.0064 126.3 98.0459 125.26Z" fill="#0077FF"/>
<path d="M25.451 4.51394C26.2874 3.67746 26.2874 2.32126 25.4509 1.48478C24.6145 0.648295 23.2583 0.648288 22.4218 1.48477C21.5853 2.32125 21.5853 3.67746 22.4218 4.51394C23.2583 5.35042 24.6145 5.35042 25.451 4.51394Z" fill="#0077FF"/>
<path d="M49.8944 28.9574C50.934 27.9178 50.934 26.2324 49.8944 25.1928C48.8549 24.1533 47.1694 24.1533 46.1298 25.1928C45.0903 26.2324 45.0903 27.9178 46.1298 28.9574C47.1694 29.997 48.8549 29.997 49.8944 28.9574Z" fill="#0077FF"/>
<path d="M73.9702 53.0332C75.0097 51.9936 75.0097 50.3081 73.9702 49.2686C72.9306 48.229 71.2451 48.229 70.2056 49.2686C69.166 50.3081 69.166 51.9936 70.2056 53.0331C71.2451 54.0727 72.9306 54.0727 73.9702 53.0332Z" fill="#0077FF"/>
<path d="M97.6782 76.7412C98.5147 75.9047 98.5147 74.5485 97.6782 73.712C96.8417 72.8755 95.4855 72.8755 94.649 73.712C93.8126 74.5485 93.8126 75.9047 94.649 76.7412C95.4855 77.5777 96.8417 77.5777 97.6782 76.7412Z" fill="#0077FF"/>
</svg>
