<svg width="248" height="247" viewBox="0 0 248 247" fill="none" xmlns="http://www.w3.org/2000/svg">
<path d="M4.68245 173.252C5.5207 172.414 5.5207 171.055 4.68245 170.217C3.8442 169.379 2.48512 169.379 1.64687 170.217C0.808618 171.055 0.808621 172.414 1.64687 173.252C2.48512 174.091 3.8442 174.091 4.68245 173.252Z" fill="#0077FF"/>
<path d="M29.1776 197.748C30.2194 196.706 30.2194 195.017 29.1776 193.975C28.1359 192.933 26.4468 192.933 25.4051 193.975C24.3633 195.017 24.3633 196.706 25.4051 197.748C26.4469 198.789 28.1359 198.789 29.1776 197.748Z" fill="#0077FF"/>
<path d="M53.3043 221.874C54.3461 220.833 54.3461 219.144 53.3043 218.102C52.2626 217.06 50.5735 217.06 49.5318 218.102C48.49 219.144 48.49 220.833 49.5318 221.874C50.5736 222.916 52.2626 222.916 53.3043 221.874Z" fill="#0077FF"/>
<path d="M77.0625 245.633C77.9008 244.794 77.9008 243.435 77.0625 242.597C76.2243 241.759 74.8652 241.759 74.027 242.597C73.1887 243.435 73.1887 244.794 74.027 245.633C74.8652 246.471 76.2243 246.471 77.0625 245.633Z" fill="#0077FF"/>
<path d="M5.05093 125.368C6.09269 124.326 6.09269 122.637 5.05093 121.595C4.00917 120.553 2.32015 120.553 1.27839 121.595C0.236631 122.637 0.236631 124.326 1.27839 125.368C2.32015 126.409 4.00917 126.409 5.05093 125.368Z" fill="#0077FF"/>
<path d="M29.897 150.214C31.3361 148.775 31.3361 146.441 29.897 145.002C28.458 143.563 26.1248 143.563 24.6857 145.002C23.2466 146.441 23.2466 148.775 24.6857 150.214C26.1248 151.653 28.458 151.653 29.897 150.214Z" fill="#0077FF"/>
<path d="M54.7432 175.06C56.5796 173.223 56.5796 170.246 54.7432 168.41C52.9068 166.573 49.9294 166.573 48.093 168.41C46.2566 170.246 46.2566 173.223 48.093 175.06C49.9294 176.896 52.9068 176.896 54.7432 175.06Z" fill="#0077FF"/>
<path d="M78.8699 199.186C80.7063 197.35 80.7063 194.373 78.8699 192.536C77.0335 190.7 74.0561 190.7 72.2197 192.536C70.3833 194.373 70.3833 197.35 72.2197 199.186C74.0561 201.023 77.0335 201.023 78.8699 199.186Z" fill="#0077FF"/>
<path d="M102.277 222.594C103.716 221.155 103.716 218.821 102.277 217.382C100.838 215.943 98.5049 215.943 97.0658 217.382C95.6267 218.821 95.6267 221.155 97.0658 222.594C98.5049 224.033 100.838 224.033 102.277 222.594Z" fill="#0077FF"/>
<path d="M125.684 246.001C126.726 244.959 126.726 243.27 125.684 242.229C124.643 241.187 122.954 241.187 121.912 242.229C120.87 243.27 120.87 244.959 121.912 246.001C122.954 247.043 124.643 247.043 125.684 246.001Z" fill="#0077FF"/>
<path d="M4.68245 76.7457C5.5207 75.9074 5.5207 74.5483 4.68245 73.7101C3.8442 72.8718 2.48512 72.8718 1.64687 73.7101C0.808621 74.5483 0.808618 75.9074 1.64687 76.7457C2.48512 77.5839 3.8442 77.5839 4.68245 76.7457Z" fill="#0077FF"/>
<path d="M29.897 101.96C31.3361 100.521 31.3361 98.188 29.897 96.7489C28.458 95.3098 26.1248 95.3098 24.6857 96.7489C23.2466 98.188 23.2466 100.521 24.6857 101.96C26.1248 103.399 28.458 103.399 29.897 101.96Z" fill="#0077FF"/>
<path d="M55.1029 127.166C57.1379 125.131 57.1379 121.832 55.1029 119.796C53.0678 117.761 49.7683 117.761 47.7333 119.796C45.6982 121.832 45.6982 125.131 47.7333 127.166C49.7683 129.201 53.0678 129.201 55.1029 127.166Z" fill="#0077FF"/>
<path d="M80.3175 152.381C82.9534 149.745 82.9534 145.471 80.3175 142.835C77.6816 140.199 73.408 140.199 70.7721 142.835C68.1362 145.471 68.1362 149.745 70.7721 152.381C73.408 155.017 77.6816 155.017 80.3175 152.381Z" fill="#0077FF"/>
<path d="M104.444 176.507C107.08 173.871 107.08 169.598 104.444 166.962C101.808 164.326 97.5347 164.326 94.8988 166.962C92.2629 169.598 92.2629 173.871 94.8988 176.507C97.5347 179.143 101.808 179.143 104.444 176.507Z" fill="#0077FF"/>
<path d="M127.483 199.546C129.518 197.511 129.518 194.212 127.483 192.177C125.448 190.142 122.148 190.142 120.113 192.177C118.078 194.212 118.078 197.511 120.113 199.546C122.148 201.581 125.448 201.581 127.483 199.546Z" fill="#0077FF"/>
<path d="M150.531 222.594C151.97 221.155 151.97 218.821 150.531 217.382C149.091 215.943 146.758 215.943 145.319 217.382C143.88 218.821 143.88 221.155 145.319 222.594C146.758 224.033 149.091 224.033 150.531 222.594Z" fill="#0077FF"/>
<path d="M173.569 245.633C174.408 244.794 174.408 243.435 173.569 242.597C172.731 241.759 171.372 241.759 170.534 242.597C169.696 243.435 169.696 244.794 170.534 245.633C171.372 246.471 172.731 246.471 173.569 245.633Z" fill="#0077FF"/>
<path d="M29.1776 52.9874C30.2194 51.9457 30.2194 50.2566 29.1776 49.2149C28.1359 48.1731 26.4469 48.1731 25.4051 49.2149C24.3633 50.2566 24.3633 51.9457 25.4051 52.9874C26.4468 54.0292 28.1359 54.0292 29.1776 52.9874Z" fill="#0077FF"/>
<path d="M54.7432 78.553C56.5796 76.7166 56.5796 73.7392 54.7432 71.9028C52.9068 70.0664 49.9294 70.0664 48.093 71.9028C46.2566 73.7392 46.2566 76.7166 48.093 78.553C49.9294 80.3894 52.9068 80.3894 54.7432 78.553Z" fill="#0077FF"/>
<path d="M80.3175 104.127C82.9534 101.491 82.9534 97.2178 80.3175 94.5819C77.6816 91.946 73.408 91.946 70.7721 94.5819C68.1362 97.2178 68.1362 101.491 70.7721 104.127C73.408 106.763 77.6816 106.763 80.3175 104.127Z" fill="#0077FF"/>
<path d="M105.883 129.693C109.314 126.262 109.314 120.7 105.883 117.27C102.452 113.839 96.8905 113.839 93.4599 117.27C90.0294 120.7 90.0294 126.262 93.4599 129.693C96.8905 133.123 102.452 133.123 105.883 129.693Z" fill="#0077FF"/>
<path d="M130.01 153.82C133.44 150.389 133.44 144.827 130.01 141.396C126.579 137.966 121.017 137.966 117.587 141.396C114.156 144.827 114.156 150.389 117.587 153.82C121.017 157.25 126.579 157.25 130.01 153.82Z" fill="#0077FF"/>
<path d="M152.698 176.507C155.333 173.871 155.333 169.598 152.698 166.962C150.062 164.326 145.788 164.326 143.152 166.962C140.516 169.598 140.516 173.871 143.152 176.507C145.788 179.143 150.062 179.143 152.698 176.507Z" fill="#0077FF"/>
<path d="M175.377 199.186C177.213 197.35 177.213 194.373 175.377 192.536C173.54 190.7 170.563 190.7 168.726 192.536C166.89 194.373 166.89 197.35 168.726 199.186C170.563 201.023 173.54 201.023 175.377 199.186Z" fill="#0077FF"/>
<path d="M198.065 221.874C199.106 220.833 199.106 219.144 198.065 218.102C197.023 217.06 195.334 217.06 194.292 218.102C193.25 219.144 193.25 220.833 194.292 221.874C195.334 222.916 197.023 222.916 198.065 221.874Z" fill="#0077FF"/>
<path d="M53.3043 28.8607C54.3461 27.819 54.3461 26.1299 53.3043 25.0882C52.2626 24.0464 50.5736 24.0464 49.5318 25.0882C48.49 26.1299 48.49 27.819 49.5318 28.8607C50.5735 29.9025 52.2626 29.9025 53.3043 28.8607Z" fill="#0077FF"/>
<path d="M78.8699 54.4263C80.7063 52.5899 80.7063 49.6125 78.8699 47.7761C77.0335 45.9397 74.0561 45.9397 72.2197 47.7761C70.3833 49.6125 70.3833 52.5899 72.2197 54.4263C74.0561 56.2627 77.0335 56.2627 78.8699 54.4263Z" fill="#0077FF"/>
<path d="M104.444 80.0006C107.08 77.3647 107.08 73.091 104.444 70.4552C101.808 67.8193 97.5347 67.8193 94.8988 70.4552C92.2629 73.091 92.2629 77.3647 94.8988 80.0006C97.5347 82.6365 101.808 82.6365 104.444 80.0006Z" fill="#0077FF"/>
<path d="M130.01 105.566C133.44 102.136 133.44 96.5736 130.01 93.143C126.579 89.7125 121.017 89.7125 117.587 93.143C114.156 96.5736 114.156 102.136 117.587 105.566C121.017 108.997 126.579 108.997 130.01 105.566Z" fill="#0077FF"/>
<path d="M154.136 129.693C157.567 126.262 157.567 120.7 154.136 117.27C150.706 113.839 145.144 113.839 141.713 117.27C138.283 120.7 138.283 126.262 141.713 129.693C145.144 133.123 150.706 133.123 154.136 129.693Z" fill="#0077FF"/>
<path d="M176.824 152.381C179.46 149.745 179.46 145.471 176.824 142.835C174.188 140.199 169.915 140.199 167.279 142.835C164.643 145.471 164.643 149.745 167.279 152.381C169.915 155.017 174.188 155.017 176.824 152.381Z" fill="#0077FF"/>
<path d="M199.503 175.06C201.34 173.223 201.34 170.246 199.503 168.41C197.667 166.573 194.69 166.573 192.853 168.41C191.017 170.246 191.017 173.223 192.853 175.06C194.69 176.896 197.667 176.896 199.503 175.06Z" fill="#0077FF"/>
<path d="M222.191 197.748C223.233 196.706 223.233 195.017 222.191 193.975C221.149 192.933 219.46 192.933 218.419 193.975C217.377 195.017 217.377 196.706 218.419 197.748C219.46 198.789 221.149 198.789 222.191 197.748Z" fill="#0077FF"/>
<path d="M77.0625 4.36555C77.9008 3.5273 77.9008 2.16823 77.0625 1.32998C76.2243 0.491725 74.8652 0.491721 74.027 1.32997C73.1887 2.16822 73.1887 3.52729 74.027 4.36555C74.8652 5.2038 76.2243 5.2038 77.0625 4.36555Z" fill="#0077FF"/>
<path d="M102.277 29.5801C103.716 28.1411 103.716 25.8079 102.277 24.3688C100.838 22.9297 98.5049 22.9297 97.0658 24.3688C95.6267 25.8079 95.6267 28.1411 97.0658 29.5801C98.5049 31.0192 100.838 31.0192 102.277 29.5801Z" fill="#0077FF"/>
<path d="M127.483 54.786C129.518 52.7509 129.518 49.4514 127.483 47.4164C125.448 45.3813 122.148 45.3813 120.113 47.4164C118.078 49.4514 118.078 52.7509 120.113 54.786C122.148 56.821 125.448 56.821 127.483 54.786Z" fill="#0077FF"/>
<path d="M152.698 80.0006C155.333 77.3647 155.333 73.0911 152.698 70.4552C150.062 67.8193 145.788 67.8193 143.152 70.4552C140.516 73.0911 140.516 77.3647 143.152 80.0006C145.788 82.6365 150.062 82.6365 152.698 80.0006Z" fill="#0077FF"/>
<path d="M176.824 104.127C179.46 101.491 179.46 97.2178 176.824 94.5819C174.188 91.946 169.915 91.946 167.279 94.5819C164.643 97.2178 164.643 101.491 167.279 104.127C169.915 106.763 174.188 106.763 176.824 104.127Z" fill="#0077FF"/>
<path d="M199.863 127.166C201.898 125.131 201.898 121.832 199.863 119.796C197.828 117.761 194.529 117.761 192.493 119.796C190.458 121.832 190.458 125.131 192.493 127.166C194.529 129.201 197.828 129.201 199.863 127.166Z" fill="#0077FF"/>
<path d="M222.911 150.214C224.35 148.775 224.35 146.441 222.911 145.002C221.472 143.563 219.138 143.563 217.699 145.002C216.26 146.441 216.26 148.775 217.699 150.214C219.138 151.653 221.472 151.653 222.911 150.214Z" fill="#0077FF"/>
<path d="M245.949 173.252C246.788 172.414 246.788 171.055 245.949 170.217C245.111 169.379 243.752 169.379 242.914 170.217C242.076 171.055 242.076 172.414 242.914 173.252C243.752 174.091 245.111 174.091 245.949 173.252Z" fill="#0077FF"/>
<path d="M125.684 4.73403C126.726 3.69227 126.726 2.00326 125.684 0.961498C124.643 -0.0802603 122.954 -0.0802671 121.912 0.961491C120.87 2.00325 120.87 3.69227 121.912 4.73403C122.954 5.77578 124.643 5.77579 125.684 4.73403Z" fill="#0077FF"/>
<path d="M150.531 29.5801C151.97 28.1411 151.97 25.8079 150.531 24.3688C149.091 22.9297 146.758 22.9297 145.319 24.3688C143.88 25.8079 143.88 28.1411 145.319 29.5801C146.758 31.0192 149.091 31.0192 150.531 29.5801Z" fill="#0077FF"/>
<path d="M175.377 54.4263C177.213 52.5899 177.213 49.6125 175.377 47.7761C173.54 45.9397 170.563 45.9397 168.726 47.7761C166.89 49.6125 166.89 52.5899 168.726 54.4263C170.563 56.2627 173.54 56.2627 175.377 54.4263Z" fill="#0077FF"/>
<path d="M199.503 78.553C201.34 76.7166 201.34 73.7392 199.503 71.9028C197.667 70.0664 194.69 70.0664 192.853 71.9028C191.017 73.7392 191.017 76.7166 192.853 78.553C194.69 80.3894 197.667 80.3894 199.503 78.553Z" fill="#0077FF"/>
<path d="M222.911 101.96C224.35 100.521 224.35 98.188 222.911 96.7489C221.472 95.3098 219.138 95.3098 217.699 96.7489C216.26 98.188 216.26 100.521 217.699 101.96C219.138 103.399 221.472 103.399 222.911 101.96Z" fill="#0077FF"/>
<path d="M246.318 125.368C247.36 124.326 247.36 122.637 246.318 121.595C245.276 120.553 243.587 120.553 242.545 121.595C241.504 122.637 241.504 124.326 242.545 125.368C243.587 126.409 245.276 126.409 246.318 125.368Z" fill="#0077FF"/>
<path d="M173.569 4.36555C174.408 3.5273 174.408 2.16823 173.569 1.32998C172.731 0.491726 171.372 0.49172 170.534 1.32997C169.696 2.16822 169.696 3.5273 170.534 4.36555C171.372 5.2038 172.731 5.20381 173.569 4.36555Z" fill="#0077FF"/>
<path d="M198.065 28.8607C199.106 27.819 199.106 26.13 198.065 25.0882C197.023 24.0464 195.334 24.0464 194.292 25.0882C193.25 26.13 193.25 27.819 194.292 28.8607C195.334 29.9025 197.023 29.9025 198.065 28.8607Z" fill="#0077FF"/>
<path d="M222.191 52.9874C223.233 51.9457 223.233 50.2567 222.191 49.2149C221.149 48.1731 219.46 48.1731 218.419 49.2149C217.377 50.2567 217.377 51.9457 218.419 52.9874C219.46 54.0292 221.149 54.0292 222.191 52.9874Z" fill="#0077FF"/>
<path d="M245.949 76.7456C246.788 75.9074 246.788 74.5483 245.949 73.7101C245.111 72.8718 243.752 72.8718 242.914 73.7101C242.076 74.5483 242.076 75.9074 242.914 76.7456C243.752 77.5839 245.111 77.5839 245.949 76.7456Z" fill="#0077FF"/>
</svg>
