<svg width="254" height="62" viewBox="0 0 254 62" fill="none" xmlns="http://www.w3.org/2000/svg">
<path d="M74.5691 19.0248C75.6787 19.0248 76.641 19.2415 77.4559 19.6749C78.2881 20.0911 78.9296 20.7326 79.3804 21.5995C79.8485 22.4664 80.0826 23.5587 80.0826 24.8764V32.8086H78.2361V25.0584C78.2361 23.6194 77.8893 22.5357 77.1958 21.8075C76.5196 21.062 75.5573 20.6892 74.309 20.6892C73.3727 20.6892 72.5578 20.8886 71.8643 21.2874C71.1881 21.6688 70.6593 22.2323 70.2779 22.9779C69.9138 23.7061 69.7317 24.5903 69.7317 25.6306V32.8086H67.8852V25.0584C67.8852 23.6194 67.5384 22.5357 66.8449 21.8075C66.1514 21.062 65.1804 20.6892 63.9321 20.6892C63.0132 20.6892 62.2069 20.8886 61.5134 21.2874C60.8199 21.6688 60.2824 22.2323 59.901 22.9779C59.5369 23.7061 59.3548 24.5903 59.3548 25.6306V32.8086H57.5083V19.1548H59.2768V22.8478L58.9907 22.1976C59.4068 21.2094 60.0744 20.4378 60.9933 19.883C61.9295 19.3108 63.0305 19.0248 64.2962 19.0248C65.6312 19.0248 66.7669 19.3629 67.7031 20.039C68.6394 20.6979 69.2462 21.6948 69.5237 23.0299L68.7954 22.7438C69.1942 21.6342 69.8964 20.7412 70.902 20.0651C71.925 19.3715 73.1473 19.0248 74.5691 19.0248ZM90.8898 32.9386C89.4681 32.9386 88.2197 32.6439 87.1448 32.0544C86.0698 31.4475 85.2289 30.624 84.6221 29.5837C84.0152 28.5261 83.7118 27.3211 83.7118 25.9687C83.7118 24.6163 83.9979 23.42 84.57 22.3797C85.1595 21.3394 85.9571 20.5245 86.9627 19.935C87.9857 19.3282 89.13 19.0248 90.3957 19.0248C91.6787 19.0248 92.8143 19.3195 93.8026 19.909C94.8082 20.4812 95.5971 21.2961 96.1693 22.3537C96.7414 23.394 97.0275 24.599 97.0275 25.9687C97.0275 26.0554 97.0188 26.1507 97.0015 26.2548C97.0015 26.3415 97.0015 26.4368 97.0015 26.5409H85.1162V25.1625H96.0132L95.285 25.7086C95.285 24.7203 95.0683 23.8448 94.6348 23.0819C94.2187 22.3017 93.6466 21.6948 92.9184 21.2614C92.1902 20.8279 91.3493 20.6112 90.3957 20.6112C89.4594 20.6112 88.6185 20.8279 87.873 21.2614C87.1274 21.6948 86.5466 22.3017 86.1305 23.0819C85.7144 23.8621 85.5063 24.755 85.5063 25.7606V26.0467C85.5063 27.087 85.7317 28.0059 86.1825 28.8035C86.6506 29.5837 87.2921 30.1992 88.107 30.65C88.9393 31.0834 89.8842 31.3002 90.9418 31.3002C91.7741 31.3002 92.5456 31.1528 93.2565 30.8581C93.9847 30.5633 94.6088 30.1125 95.129 29.5057L96.1693 30.702C95.5624 31.4302 94.7996 31.985 93.8806 32.3665C92.9791 32.7479 91.9821 32.9386 90.8898 32.9386ZM106.221 32.9386C104.921 32.9386 103.751 32.6439 102.71 32.0544C101.688 31.4649 100.881 30.65 100.292 29.6097C99.7023 28.5521 99.4076 27.3384 99.4076 25.9687C99.4076 24.5816 99.7023 23.368 100.292 22.3277C100.881 21.2874 101.688 20.4812 102.71 19.909C103.751 19.3195 104.921 19.0248 106.221 19.0248C107.418 19.0248 108.484 19.2935 109.42 19.831C110.374 20.3685 111.128 21.1574 111.683 22.1976C112.255 23.2206 112.541 24.4776 112.541 25.9687C112.541 27.4424 112.264 28.6995 111.709 29.7397C111.154 30.78 110.4 31.5776 109.446 32.1324C108.51 32.6699 107.435 32.9386 106.221 32.9386ZM106.352 31.3002C107.322 31.3002 108.189 31.0834 108.952 30.65C109.732 30.1992 110.339 29.575 110.773 28.7775C111.224 27.9626 111.449 27.0263 111.449 25.9687C111.449 24.8937 111.224 23.9575 110.773 23.1599C110.339 22.3624 109.732 21.7469 108.952 21.3134C108.189 20.8626 107.322 20.6372 106.352 20.6372C105.398 20.6372 104.54 20.8626 103.777 21.3134C103.014 21.7469 102.407 22.3624 101.956 23.1599C101.505 23.9575 101.28 24.8937 101.28 25.9687C101.28 27.0263 101.505 27.9626 101.956 28.7775C102.407 29.575 103.014 30.1992 103.777 30.65C104.54 31.0834 105.398 31.3002 106.352 31.3002ZM111.501 32.8086V28.6995L111.683 25.9427L111.423 23.1859V13.5112H113.269V32.8086H111.501ZM118.412 32.8086V19.1548H120.258V32.8086H118.412ZM119.348 16.138C118.967 16.138 118.646 16.0079 118.386 15.7479C118.126 15.4878 117.996 15.1757 117.996 14.8116C117.996 14.4475 118.126 14.1441 118.386 13.9013C118.646 13.6413 118.967 13.5112 119.348 13.5112C119.73 13.5112 120.05 13.6326 120.31 13.8753C120.571 14.1181 120.701 14.4215 120.701 14.7856C120.701 15.167 120.571 15.4878 120.31 15.7479C120.068 16.0079 119.747 16.138 119.348 16.138ZM131.066 32.9386C129.714 32.9386 128.5 32.6439 127.425 32.0544C126.367 31.4475 125.535 30.624 124.928 29.5837C124.321 28.5261 124.018 27.3211 124.018 25.9687C124.018 24.599 124.321 23.394 124.928 22.3537C125.535 21.3134 126.367 20.4985 127.425 19.909C128.5 19.3195 129.714 19.0248 131.066 19.0248C132.228 19.0248 133.277 19.2502 134.213 19.701C135.149 20.1517 135.886 20.8279 136.423 21.7295L135.045 22.6658C134.577 21.9722 133.996 21.4608 133.303 21.1313C132.609 20.8019 131.855 20.6372 131.04 20.6372C130.069 20.6372 129.193 20.8626 128.413 21.3134C127.633 21.7469 127.017 22.3624 126.567 23.1599C126.116 23.9575 125.89 24.8937 125.89 25.9687C125.89 27.0437 126.116 27.9799 126.567 28.7775C127.017 29.575 127.633 30.1992 128.413 30.65C129.193 31.0834 130.069 31.3002 131.04 31.3002C131.855 31.3002 132.609 31.1355 133.303 30.806C133.996 30.4766 134.577 29.9738 135.045 29.2976L136.423 30.2339C135.886 31.1181 135.149 31.7943 134.213 32.2624C133.277 32.7132 132.228 32.9386 131.066 32.9386ZM179.425 32.8086V17.4383C179.425 16.2247 179.78 15.245 180.491 14.4995C181.202 13.754 182.225 13.3812 183.56 13.3812C184.08 13.3812 184.583 13.4505 185.068 13.5893C185.554 13.728 185.961 13.9447 186.29 14.2394L185.666 15.6178C185.406 15.3924 185.103 15.2277 184.756 15.1237C184.409 15.0023 184.036 14.9416 183.638 14.9416C182.857 14.9416 182.259 15.1584 181.843 15.5918C181.427 16.0253 181.219 16.6668 181.219 17.5163V19.5969L181.271 20.4552V32.8086H179.425ZM176.98 20.6892V19.1548H185.432V20.6892H176.98ZM196.228 32.8086V29.7918L196.15 29.2976V24.2522C196.15 23.0906 195.82 22.1976 195.162 21.5735C194.52 20.9493 193.558 20.6372 192.275 20.6372C191.39 20.6372 190.55 20.7846 189.752 21.0793C188.954 21.3741 188.278 21.7642 187.723 22.2497L186.891 20.8713C187.585 20.2818 188.417 19.831 189.388 19.5189C190.359 19.1895 191.382 19.0248 192.457 19.0248C194.225 19.0248 195.586 19.4669 196.54 20.3511C197.511 21.218 197.996 22.5444 197.996 24.3302V32.8086H196.228ZM191.521 32.9386C190.498 32.9386 189.605 32.7739 188.842 32.4445C188.096 32.0977 187.524 31.6296 187.125 31.0401C186.727 30.4333 186.527 29.7397 186.527 28.9595C186.527 28.2487 186.692 27.6071 187.021 27.035C187.368 26.4455 187.923 25.9774 188.686 25.6306C189.466 25.2665 190.506 25.0844 191.807 25.0844H196.514V26.4628H191.859C190.541 26.4628 189.622 26.6969 189.102 27.165C188.599 27.6332 188.348 28.214 188.348 28.9075C188.348 29.6877 188.651 30.3119 189.258 30.78C189.865 31.2482 190.714 31.4822 191.807 31.4822C192.847 31.4822 193.74 31.2482 194.485 30.78C195.248 30.2946 195.803 29.601 196.15 28.6995L196.566 29.9738C196.219 30.8754 195.612 31.5949 194.745 32.1324C193.896 32.6699 192.821 32.9386 191.521 32.9386ZM203.012 32.8086V19.1548H204.78V22.8738L204.598 22.2237C204.98 21.1834 205.621 20.3945 206.523 19.857C207.424 19.3022 208.543 19.0248 209.878 19.0248V20.8193C209.808 20.8193 209.739 20.8193 209.669 20.8193C209.6 20.8019 209.531 20.7933 209.461 20.7933C208.022 20.7933 206.895 21.2354 206.08 22.1196C205.266 22.9865 204.858 24.2262 204.858 25.8387V32.8086H203.012ZM230.308 19.0248C231.417 19.0248 232.38 19.2415 233.194 19.6749C234.027 20.0911 234.668 20.7326 235.119 21.5995C235.587 22.4664 235.821 23.5587 235.821 24.8764V32.8086H233.975V25.0584C233.975 23.6194 233.628 22.5357 232.934 21.8075C232.258 21.062 231.296 20.6892 230.048 20.6892C229.111 20.6892 228.296 20.8886 227.603 21.2874C226.927 21.6688 226.398 22.2323 226.016 22.9779C225.652 23.7061 225.47 24.5903 225.47 25.6306V32.8086H223.624V25.0584C223.624 23.6194 223.277 22.5357 222.584 21.8075C221.89 21.062 220.919 20.6892 219.671 20.6892C218.752 20.6892 217.946 20.8886 217.252 21.2874C216.558 21.6688 216.021 22.2323 215.64 22.9779C215.275 23.7061 215.093 24.5903 215.093 25.6306V32.8086H213.247V19.1548H215.015V22.8478L214.729 22.1976C215.145 21.2094 215.813 20.4378 216.732 19.883C217.668 19.3108 218.769 19.0248 220.035 19.0248C221.37 19.0248 222.505 19.3629 223.442 20.039C224.378 20.6979 224.985 21.6948 225.262 23.0299L224.534 22.7438C224.933 21.6342 225.635 20.7412 226.641 20.0651C227.664 19.3715 228.886 19.0248 230.308 19.0248ZM249.385 32.8086V29.7918L249.307 29.2976V24.2522C249.307 23.0906 248.978 22.1976 248.319 21.5735C247.677 20.9493 246.715 20.6372 245.432 20.6372C244.548 20.6372 243.707 20.7846 242.909 21.0793C242.112 21.3741 241.436 21.7642 240.881 22.2497L240.049 20.8713C240.742 20.2818 241.574 19.831 242.545 19.5189C243.516 19.1895 244.539 19.0248 245.614 19.0248C247.383 19.0248 248.744 19.4669 249.697 20.3511C250.668 21.218 251.154 22.5444 251.154 24.3302V32.8086H249.385ZM244.678 32.9386C243.655 32.9386 242.762 32.7739 241.999 32.4445C241.254 32.0977 240.681 31.6296 240.283 31.0401C239.884 30.4333 239.684 29.7397 239.684 28.9595C239.684 28.2487 239.849 27.6071 240.179 27.035C240.525 26.4455 241.08 25.9774 241.843 25.6306C242.623 25.2665 243.664 25.0844 244.964 25.0844H249.671V26.4628H245.016C243.698 26.4628 242.779 26.6969 242.259 27.165C241.756 27.6332 241.505 28.214 241.505 28.9075C241.505 29.6877 241.808 30.3119 242.415 30.78C243.022 31.2482 243.872 31.4822 244.964 31.4822C246.004 31.4822 246.897 31.2482 247.643 30.78C248.406 30.2946 248.96 29.601 249.307 28.6995L249.723 29.9738C249.376 30.8754 248.77 31.5949 247.903 32.1324C247.053 32.6699 245.978 32.9386 244.678 32.9386Z" fill="url(#paint0_linear_555_4777)"/>
<path d="M147.931 32.8086V30.0778L147.671 29.4797V24.5903C147.671 23.7234 147.402 23.0472 146.865 22.5617C146.345 22.0763 145.538 21.8335 144.446 21.8335C143.7 21.8335 142.964 21.9549 142.235 22.1976C141.525 22.423 140.918 22.7351 140.415 23.1339L138.958 20.2991C139.721 19.7616 140.64 19.3455 141.715 19.0508C142.79 18.756 143.883 18.6086 144.992 18.6086C147.125 18.6086 148.781 19.1115 149.96 20.1171C151.139 21.1227 151.728 22.6918 151.728 24.8244V32.8086H147.931ZM143.666 33.0167C142.573 33.0167 141.637 32.8346 140.857 32.4705C140.077 32.0891 139.479 31.5776 139.063 30.9361C138.646 30.2946 138.438 29.575 138.438 28.7775C138.438 27.9452 138.638 27.217 139.037 26.5929C139.453 25.9687 140.103 25.4832 140.987 25.1365C141.871 24.7724 143.024 24.5903 144.446 24.5903H148.165V26.957H144.888C143.935 26.957 143.276 27.113 142.912 27.4251C142.565 27.7372 142.391 28.1273 142.391 28.5954C142.391 29.1156 142.591 29.5317 142.99 29.8438C143.406 30.1385 143.969 30.2859 144.68 30.2859C145.356 30.2859 145.963 30.1298 146.501 29.8178C147.038 29.4883 147.428 29.0115 147.671 28.3874L148.295 30.2599C148 31.1615 147.463 31.8463 146.683 32.3145C145.902 32.7826 144.897 33.0167 143.666 33.0167ZM155.4 32.8086V13.5112H159.457V32.8086H155.4ZM163.222 32.8086V13.5112H167.28V32.8086H163.222Z" fill="#888787"/>
<path d="M69.9788 49.1614C69.2676 49.1614 68.6127 49.0443 68.0142 48.8101C67.4157 48.5759 66.8953 48.2506 66.4529 47.8343C66.0105 47.4092 65.6679 46.9148 65.4251 46.351C65.1822 45.7786 65.0608 45.154 65.0608 44.4775C65.0608 43.8009 65.1822 43.1807 65.4251 42.6169C65.6679 42.0445 66.0105 41.5501 66.4529 41.1337C66.8953 40.7087 67.4157 40.3791 68.0142 40.1449C68.6127 39.9107 69.2632 39.7936 69.9658 39.7936C70.6771 39.7936 71.3276 39.9107 71.9174 40.1449C72.5159 40.3791 73.0363 40.7044 73.4787 41.1207C73.9211 41.5371 74.2637 42.0315 74.5066 42.6039C74.7494 43.1764 74.8709 43.8009 74.8709 44.4775C74.8709 45.154 74.7494 45.7786 74.5066 46.351C74.2637 46.9235 73.9211 47.4179 73.4787 47.8343C73.0363 48.2506 72.5159 48.5759 71.9174 48.8101C71.3276 49.0443 70.6814 49.1614 69.9788 49.1614ZM72.9453 51.0219C72.6243 51.0219 72.3121 50.9829 72.0085 50.9048C71.7136 50.8354 71.4187 50.714 71.1238 50.5405C70.8375 50.3757 70.5383 50.1545 70.226 49.8769C69.9138 49.6081 69.5711 49.2741 69.1982 48.8751L70.9937 48.4067C71.2365 48.7277 71.4664 48.9835 71.6832 49.1744C71.9087 49.3739 72.1256 49.517 72.3338 49.6037C72.5419 49.6905 72.7588 49.7338 72.9843 49.7338C73.5828 49.7338 74.1032 49.491 74.5456 49.0052L75.3262 49.942C74.7191 50.6619 73.9254 51.0219 72.9453 51.0219ZM69.9658 47.6781C70.4255 47.6781 70.8505 47.6001 71.2409 47.4439C71.6312 47.2878 71.9695 47.0666 72.2557 46.7804C72.5419 46.4855 72.7631 46.1429 72.9192 45.7525C73.0841 45.3622 73.1665 44.9372 73.1665 44.4775C73.1665 44.0091 73.0841 43.5841 72.9192 43.2024C72.7631 42.8121 72.5419 42.4738 72.2557 42.1876C71.9695 41.8927 71.6312 41.6672 71.2409 41.511C70.8505 41.3549 70.4255 41.2768 69.9658 41.2768C69.5061 41.2768 69.0811 41.3549 68.6908 41.511C68.3004 41.6672 67.9622 41.8927 67.6759 42.1876C67.3897 42.4738 67.1642 42.8121 66.9994 43.2024C66.8432 43.5841 66.7652 44.0091 66.7652 44.4775C66.7652 44.9372 66.8432 45.3622 66.9994 45.7525C67.1642 46.1429 67.3897 46.4855 67.6759 46.7804C67.9622 47.0666 68.3004 47.2878 68.6908 47.4439C69.0811 47.6001 69.5061 47.6781 69.9658 47.6781ZM79.448 49.1223C78.8582 49.1223 78.3378 49.0139 77.8867 48.7971C77.4357 48.5715 77.0844 48.2333 76.8328 47.7822C76.5813 47.3225 76.4555 46.7457 76.4555 46.0518V42.0835H78.0819V45.8306C78.0819 46.4551 78.2207 46.9235 78.4982 47.2358C78.7845 47.5394 79.1878 47.6911 79.7082 47.6911C80.0899 47.6911 80.4195 47.6131 80.697 47.4569C80.9833 47.3008 81.2045 47.0666 81.3606 46.7544C81.5254 46.4421 81.6078 46.0561 81.6078 45.5964V42.0835H83.2341V49.0312H81.6859V47.1577L81.9591 47.7302C81.7249 48.1812 81.3823 48.5282 80.9312 48.771C80.4802 49.0052 79.9858 49.1223 79.448 49.1223ZM89.6441 49.0312V47.6261L89.553 47.3268V44.8678C89.553 44.3907 89.4099 44.0221 89.1236 43.7619C88.8374 43.493 88.4037 43.3586 87.8226 43.3586C87.4322 43.3586 87.0462 43.4193 86.6646 43.5407C86.2916 43.6621 85.975 43.8313 85.7148 44.0481L85.0773 42.8642C85.4503 42.5779 85.8926 42.3654 86.4044 42.2266C86.9248 42.0792 87.4626 42.0054 88.0177 42.0054C89.0239 42.0054 89.8002 42.2483 90.3466 42.734C90.9018 43.2111 91.1793 43.9527 91.1793 44.9589V49.0312H89.6441ZM87.4583 49.1223C86.9378 49.1223 86.4824 49.0356 86.0921 48.8621C85.7018 48.68 85.3982 48.4328 85.1814 48.1205C84.9732 47.7996 84.8691 47.4396 84.8691 47.0406C84.8691 46.6503 84.9602 46.299 85.1423 45.9867C85.3332 45.6745 85.6411 45.4273 86.0661 45.2451C86.4911 45.063 87.0549 44.9719 87.7575 44.9719H89.7742V46.0518H87.8746C87.3195 46.0518 86.9465 46.1429 86.7557 46.325C86.5648 46.4985 86.4694 46.7153 86.4694 46.9756C86.4694 47.2705 86.5865 47.5047 86.8207 47.6781C87.0549 47.8516 87.3802 47.9383 87.7965 47.9383C88.1955 47.9383 88.5512 47.8473 88.8634 47.6651C89.1843 47.483 89.4142 47.2141 89.553 46.8585L89.8262 47.8343C89.6701 48.2419 89.3882 48.5585 88.9805 48.784C88.5815 49.0096 88.0741 49.1223 87.4583 49.1223ZM93.2665 49.0312V39.3773H94.8929V49.0312H93.2665ZM97.0275 49.0312V42.0835H98.6538V49.0312H97.0275ZM97.8471 40.9386C97.5435 40.9386 97.292 40.8432 97.0925 40.6523C96.9017 40.4615 96.8063 40.2316 96.8063 39.9628C96.8063 39.6852 96.9017 39.4553 97.0925 39.2732C97.292 39.0824 97.5435 38.987 97.8471 38.987C98.1507 38.987 98.3979 39.078 98.5887 39.2602C98.7882 39.4337 98.888 39.6548 98.888 39.9237C98.888 40.21 98.7926 40.4528 98.6018 40.6523C98.4109 40.8432 98.1594 40.9386 97.8471 40.9386ZM103.729 49.1223C103.061 49.1223 102.458 48.9749 101.92 48.68C101.391 48.3764 100.975 47.96 100.671 47.4309C100.368 46.9018 100.216 46.2773 100.216 45.5574C100.216 44.8375 100.368 44.2129 100.671 43.6838C100.975 43.1547 101.391 42.7427 101.92 42.4478C102.458 42.1529 103.061 42.0054 103.729 42.0054C104.31 42.0054 104.83 42.1356 105.29 42.3958C105.75 42.6473 106.114 43.0333 106.383 43.5537C106.652 44.0742 106.786 44.742 106.786 45.5574C106.786 46.364 106.656 47.0319 106.396 47.561C106.136 48.0815 105.776 48.4718 105.316 48.732C104.856 48.9922 104.327 49.1223 103.729 49.1223ZM103.924 47.7302C104.314 47.7302 104.661 47.6434 104.965 47.47C105.277 47.2965 105.524 47.0449 105.706 46.7153C105.897 46.3857 105.993 45.9997 105.993 45.5574C105.993 45.1063 105.897 44.7204 105.706 44.3994C105.524 44.0698 105.277 43.8183 104.965 43.6448C104.661 43.4713 104.314 43.3846 103.924 43.3846C103.534 43.3846 103.182 43.4713 102.87 43.6448C102.567 43.8183 102.319 44.0698 102.128 44.3994C101.946 44.7204 101.855 45.1063 101.855 45.5574C101.855 45.9997 101.946 46.3857 102.128 46.7153C102.319 47.0449 102.567 47.2965 102.87 47.47C103.182 47.6434 103.534 47.7302 103.924 47.7302ZM106.032 49.0312V47.3919L106.097 45.5444L105.967 43.6968V39.3773H107.58V49.0312H106.032ZM114.001 49.0312V47.6261L113.91 47.3268V44.8678C113.91 44.3907 113.767 44.0221 113.481 43.7619C113.194 43.493 112.761 43.3586 112.18 43.3586C111.789 43.3586 111.403 43.4193 111.022 43.5407C110.649 43.6621 110.332 43.8313 110.072 44.0481L109.434 42.8642C109.807 42.5779 110.25 42.3654 110.761 42.2266C111.282 42.0792 111.82 42.0054 112.375 42.0054C113.381 42.0054 114.157 42.2483 114.704 42.734C115.259 43.2111 115.536 43.9527 115.536 44.9589V49.0312H114.001ZM111.815 49.1223C111.295 49.1223 110.839 49.0356 110.449 48.8621C110.059 48.68 109.755 48.4328 109.538 48.1205C109.33 47.7996 109.226 47.4396 109.226 47.0406C109.226 46.6503 109.317 46.299 109.499 45.9867C109.69 45.6745 109.998 45.4273 110.423 45.2451C110.848 45.063 111.412 44.9719 112.115 44.9719H114.131V46.0518H112.232C111.677 46.0518 111.304 46.1429 111.113 46.325C110.922 46.4985 110.826 46.7153 110.826 46.9756C110.826 47.2705 110.944 47.5047 111.178 47.6781C111.412 47.8516 111.737 47.9383 112.154 47.9383C112.553 47.9383 112.908 47.8473 113.22 47.6651C113.541 47.483 113.771 47.2141 113.91 46.8585L114.183 47.8343C114.027 48.2419 113.745 48.5585 113.338 48.784C112.939 49.0096 112.431 49.1223 111.815 49.1223ZM120.577 49.1223C119.909 49.1223 119.306 48.9749 118.768 48.68C118.239 48.3764 117.823 47.96 117.519 47.4309C117.216 46.9018 117.064 46.2773 117.064 45.5574C117.064 44.8375 117.216 44.2129 117.519 43.6838C117.823 43.1547 118.239 42.7427 118.768 42.4478C119.306 42.1529 119.909 42.0054 120.577 42.0054C121.158 42.0054 121.678 42.1356 122.138 42.3958C122.598 42.6473 122.962 43.0333 123.231 43.5537C123.5 44.0742 123.634 44.742 123.634 45.5574C123.634 46.364 123.504 47.0319 123.244 47.561C122.984 48.0815 122.624 48.4718 122.164 48.732C121.704 48.9922 121.175 49.1223 120.577 49.1223ZM120.772 47.7302C121.162 47.7302 121.509 47.6434 121.813 47.47C122.125 47.2965 122.372 47.0449 122.554 46.7153C122.745 46.3857 122.841 45.9997 122.841 45.5574C122.841 45.1063 122.745 44.7204 122.554 44.3994C122.372 44.0698 122.125 43.8183 121.813 43.6448C121.509 43.4713 121.162 43.3846 120.772 43.3846C120.382 43.3846 120.03 43.4713 119.718 43.6448C119.414 43.8183 119.167 44.0698 118.976 44.3994C118.794 44.7204 118.703 45.1063 118.703 45.5574C118.703 45.9997 118.794 46.3857 118.976 46.7153C119.167 47.0449 119.414 47.2965 119.718 47.47C120.03 47.6434 120.382 47.7302 120.772 47.7302ZM122.88 49.0312V47.3919L122.945 45.5444L122.815 43.6968V39.3773H124.428V49.0312H122.88ZM129.834 49.1223C129.062 49.1223 128.386 48.9705 127.804 48.6669C127.232 48.3547 126.785 47.9297 126.464 47.3919C126.152 46.8541 125.996 46.2426 125.996 45.5574C125.996 44.8635 126.148 44.252 126.451 43.7229C126.764 43.1851 127.189 42.7644 127.726 42.4608C128.273 42.1572 128.893 42.0054 129.587 42.0054C130.264 42.0054 130.866 42.1529 131.395 42.4478C131.925 42.7427 132.341 43.1591 132.644 43.6968C132.948 44.2346 133.1 44.8678 133.1 45.5964C133.1 45.6658 133.096 45.7439 133.087 45.8306C133.087 45.9173 133.083 45.9997 133.074 46.0778H127.284V44.9979H132.215L131.578 45.3362C131.586 44.9372 131.504 44.5859 131.33 44.2823C131.157 43.9787 130.918 43.7402 130.615 43.5667C130.32 43.3933 129.977 43.3065 129.587 43.3065C129.188 43.3065 128.837 43.3933 128.533 43.5667C128.238 43.7402 128.004 43.9831 127.831 44.2953C127.666 44.5989 127.583 44.9589 127.583 45.3752V45.6354C127.583 46.0518 127.679 46.4204 127.87 46.7414C128.06 47.0623 128.329 47.3095 128.676 47.483C129.023 47.6564 129.422 47.7432 129.873 47.7432C130.264 47.7432 130.615 47.6825 130.927 47.561C131.239 47.4396 131.517 47.2488 131.76 46.9886L132.631 47.9904C132.319 48.3547 131.925 48.6366 131.448 48.8361C130.979 49.0269 130.441 49.1223 129.834 49.1223ZM142.538 49.0312V47.6261L142.447 47.3268V44.8678C142.447 44.3907 142.304 44.0221 142.018 43.7619C141.732 43.493 141.298 43.3586 140.717 43.3586C140.327 43.3586 139.941 43.4193 139.559 43.5407C139.186 43.6621 138.869 43.8313 138.609 44.0481L137.972 42.8642C138.345 42.5779 138.787 42.3654 139.299 42.2266C139.819 42.0792 140.357 42.0054 140.912 42.0054C141.918 42.0054 142.694 42.2483 143.241 42.734C143.796 43.2111 144.074 43.9527 144.074 44.9589V49.0312H142.538ZM140.353 49.1223C139.832 49.1223 139.377 49.0356 138.986 48.8621C138.596 48.68 138.293 48.4328 138.076 48.1205C137.867 47.7996 137.763 47.4396 137.763 47.0406C137.763 46.6503 137.854 46.299 138.037 45.9867C138.227 45.6745 138.535 45.4273 138.96 45.2451C139.385 45.063 139.949 44.9719 140.652 44.9719H142.668V46.0518H140.769C140.214 46.0518 139.841 46.1429 139.65 46.325C139.459 46.4985 139.364 46.7153 139.364 46.9756C139.364 47.2705 139.481 47.5047 139.715 47.6781C139.949 47.8516 140.274 47.9383 140.691 47.9383C141.09 47.9383 141.445 47.8473 141.758 47.6651C142.079 47.483 142.308 47.2141 142.447 46.8585L142.721 47.8343C142.564 48.2419 142.282 48.5585 141.875 48.784C141.476 49.0096 140.968 49.1223 140.353 49.1223ZM149.978 49.0312V41.6932C149.978 40.9646 150.19 40.3834 150.615 39.9497C151.049 39.5074 151.665 39.2862 152.463 39.2862C152.749 39.2862 153.018 39.3166 153.269 39.3773C153.53 39.438 153.747 39.5334 153.92 39.6635L153.478 40.8865C153.356 40.7911 153.217 40.7217 153.061 40.6783C152.905 40.6263 152.745 40.6003 152.58 40.6003C152.242 40.6003 151.986 40.6957 151.812 40.8865C151.639 41.0687 151.552 41.3462 151.552 41.7192V42.4999L151.604 43.2285V49.0312H149.978ZM148.833 43.4366V42.1356H153.465V43.4366H148.833ZM158.713 49.0312V47.6261L158.622 47.3268V44.8678C158.622 44.3907 158.479 44.0221 158.192 43.7619C157.906 43.493 157.472 43.3586 156.891 43.3586C156.501 43.3586 156.115 43.4193 155.733 43.5407C155.36 43.6621 155.044 43.8313 154.784 44.0481L154.146 42.8642C154.519 42.5779 154.961 42.3654 155.473 42.2266C155.994 42.0792 156.531 42.0054 157.087 42.0054C158.093 42.0054 158.869 42.2483 159.415 42.734C159.971 43.2111 160.248 43.9527 160.248 44.9589V49.0312H158.713ZM156.527 49.1223C156.007 49.1223 155.551 49.0356 155.161 48.8621C154.771 48.68 154.467 48.4328 154.25 48.1205C154.042 47.7996 153.938 47.4396 153.938 47.0406C153.938 46.6503 154.029 46.299 154.211 45.9867C154.402 45.6745 154.71 45.4273 155.135 45.2451C155.56 45.063 156.124 44.9719 156.826 44.9719H158.843V46.0518H156.943C156.388 46.0518 156.015 46.1429 155.824 46.325C155.634 46.4985 155.538 46.7153 155.538 46.9756C155.538 47.2705 155.655 47.5047 155.89 47.6781C156.124 47.8516 156.449 47.9383 156.865 47.9383C157.264 47.9383 157.62 47.8473 157.932 47.6651C158.253 47.483 158.483 47.2141 158.622 46.8585L158.895 47.8343C158.739 48.2419 158.457 48.5585 158.049 48.784C157.65 49.0096 157.143 49.1223 156.527 49.1223ZM164.056 49.0312L161.076 42.0835H162.768L165.331 48.2116H164.498L167.152 42.0835H168.714L165.734 49.0312H164.056ZM172.662 49.1223C171.951 49.1223 171.318 48.9705 170.763 48.6669C170.207 48.3547 169.769 47.9297 169.448 47.3919C169.128 46.8541 168.967 46.2426 168.967 45.5574C168.967 44.8635 169.128 44.252 169.448 43.7229C169.769 43.1851 170.207 42.7644 170.763 42.4608C171.318 42.1572 171.951 42.0054 172.662 42.0054C173.382 42.0054 174.02 42.1572 174.575 42.4608C175.138 42.7644 175.577 43.1807 175.889 43.7099C176.21 44.239 176.37 44.8548 176.37 45.5574C176.37 46.2426 176.21 46.8541 175.889 47.3919C175.577 47.9297 175.138 48.3547 174.575 48.6669C174.02 48.9705 173.382 49.1223 172.662 49.1223ZM172.662 47.7302C173.061 47.7302 173.417 47.6434 173.729 47.47C174.041 47.2965 174.284 47.0449 174.458 46.7153C174.64 46.3857 174.731 45.9997 174.731 45.5574C174.731 45.1063 174.64 44.7204 174.458 44.3994C174.284 44.0698 174.041 43.8183 173.729 43.6448C173.417 43.4713 173.065 43.3846 172.675 43.3846C172.276 43.3846 171.92 43.4713 171.608 43.6448C171.305 43.8183 171.062 44.0698 170.88 44.3994C170.697 44.7204 170.606 45.1063 170.606 45.5574C170.606 45.9997 170.697 46.3857 170.88 46.7153C171.062 47.0449 171.305 47.2965 171.608 47.47C171.92 47.6434 172.272 47.7302 172.662 47.7302ZM177.925 49.0312V42.0835H179.474V43.9961L179.291 43.4366C179.5 42.9682 179.825 42.6126 180.267 42.3697C180.718 42.1269 181.278 42.0054 181.946 42.0054V43.5537C181.876 43.5364 181.811 43.5277 181.751 43.5277C181.69 43.519 181.629 43.5147 181.568 43.5147C180.953 43.5147 180.462 43.6968 180.098 44.0611C179.734 44.4168 179.552 44.9502 179.552 45.6615V49.0312H177.925ZM189.925 49.1223C189.257 49.1223 188.654 48.9749 188.117 48.68C187.587 48.3764 187.171 47.96 186.868 47.4309C186.564 46.9018 186.412 46.2773 186.412 45.5574C186.412 44.8375 186.564 44.2129 186.868 43.6838C187.171 43.1547 187.587 42.7427 188.117 42.4478C188.654 42.1529 189.257 42.0054 189.925 42.0054C190.506 42.0054 191.027 42.1356 191.486 42.3958C191.946 42.6473 192.31 43.0333 192.579 43.5537C192.848 44.0742 192.983 44.742 192.983 45.5574C192.983 46.364 192.852 47.0319 192.592 47.561C192.332 48.0815 191.972 48.4718 191.512 48.732C191.053 48.9922 190.524 49.1223 189.925 49.1223ZM190.12 47.7302C190.511 47.7302 190.857 47.6434 191.161 47.47C191.473 47.2965 191.721 47.0449 191.903 46.7153C192.093 46.3857 192.189 45.9997 192.189 45.5574C192.189 45.1063 192.093 44.7204 191.903 44.3994C191.721 44.0698 191.473 43.8183 191.161 43.6448C190.857 43.4713 190.511 43.3846 190.12 43.3846C189.73 43.3846 189.379 43.4713 189.066 43.6448C188.763 43.8183 188.516 44.0698 188.325 44.3994C188.143 44.7204 188.051 45.1063 188.051 45.5574C188.051 45.9997 188.143 46.3857 188.325 46.7153C188.516 47.0449 188.763 47.2965 189.066 47.47C189.379 47.6434 189.73 47.7302 190.12 47.7302ZM192.228 49.0312V47.3919L192.293 45.5444L192.163 43.6968V39.3773H193.776V49.0312H192.228ZM200.197 49.0312V47.6261L200.106 47.3268V44.8678C200.106 44.3907 199.963 44.0221 199.677 43.7619C199.391 43.493 198.957 43.3586 198.376 43.3586C197.985 43.3586 197.6 43.4193 197.218 43.5407C196.845 43.6621 196.528 43.8313 196.268 44.0481L195.631 42.8642C196.004 42.5779 196.446 42.3654 196.958 42.2266C197.478 42.0792 198.016 42.0054 198.571 42.0054C199.577 42.0054 200.353 42.2483 200.9 42.734C201.455 43.2111 201.733 43.9527 201.733 44.9589V49.0312H200.197ZM198.012 49.1223C197.491 49.1223 197.036 49.0356 196.645 48.8621C196.255 48.68 195.951 48.4328 195.735 48.1205C195.526 47.7996 195.422 47.4396 195.422 47.0406C195.422 46.6503 195.513 46.299 195.696 45.9867C195.886 45.6745 196.194 45.4273 196.619 45.2451C197.044 45.063 197.608 44.9719 198.311 44.9719H200.327V46.0518H198.428C197.873 46.0518 197.5 46.1429 197.309 46.325C197.118 46.4985 197.023 46.7153 197.023 46.9756C197.023 47.2705 197.14 47.5047 197.374 47.6781C197.608 47.8516 197.933 47.9383 198.35 47.9383C198.749 47.9383 199.104 47.8473 199.417 47.6651C199.738 47.483 199.967 47.2141 200.106 46.8585L200.379 47.8343C200.223 48.2419 199.941 48.5585 199.534 48.784C199.135 49.0096 198.627 49.1223 198.012 49.1223ZM209.263 49.0312L206.284 42.0835H207.975L210.538 48.2116H209.705L212.36 42.0835H213.921L210.941 49.0312H209.263ZM214.937 49.0312V42.0835H216.564V49.0312H214.937ZM215.757 40.9386C215.453 40.9386 215.202 40.8432 215.002 40.6523C214.812 40.4615 214.716 40.2316 214.716 39.9628C214.716 39.6852 214.812 39.4553 215.002 39.2732C215.202 39.0824 215.453 38.987 215.757 38.987C216.061 38.987 216.308 39.078 216.499 39.2602C216.698 39.4337 216.798 39.6548 216.798 39.9237C216.798 40.21 216.703 40.4528 216.512 40.6523C216.321 40.8432 216.069 40.9386 215.757 40.9386ZM221.639 49.1223C220.971 49.1223 220.368 48.9749 219.83 48.68C219.301 48.3764 218.885 47.96 218.581 47.4309C218.278 46.9018 218.126 46.2773 218.126 45.5574C218.126 44.8375 218.278 44.2129 218.581 43.6838C218.885 43.1547 219.301 42.7427 219.83 42.4478C220.368 42.1529 220.971 42.0054 221.639 42.0054C222.22 42.0054 222.74 42.1356 223.2 42.3958C223.66 42.6473 224.024 43.0333 224.293 43.5537C224.562 44.0742 224.696 44.742 224.696 45.5574C224.696 46.364 224.566 47.0319 224.306 47.561C224.046 48.0815 223.686 48.4718 223.226 48.732C222.766 48.9922 222.237 49.1223 221.639 49.1223ZM221.834 47.7302C222.224 47.7302 222.571 47.6434 222.875 47.47C223.187 47.2965 223.434 47.0449 223.616 46.7153C223.807 46.3857 223.903 45.9997 223.903 45.5574C223.903 45.1063 223.807 44.7204 223.616 44.3994C223.434 44.0698 223.187 43.8183 222.875 43.6448C222.571 43.4713 222.224 43.3846 221.834 43.3846C221.444 43.3846 221.092 43.4713 220.78 43.6448C220.476 43.8183 220.229 44.0698 220.038 44.3994C219.856 44.7204 219.765 45.1063 219.765 45.5574C219.765 45.9997 219.856 46.3857 220.038 46.7153C220.229 47.0449 220.476 47.2965 220.78 47.47C221.092 47.6434 221.444 47.7302 221.834 47.7302ZM223.942 49.0312V47.3919L224.007 45.5444L223.877 43.6968V39.3773H225.49V49.0312H223.942ZM231.911 49.0312V47.6261L231.82 47.3268V44.8678C231.82 44.3907 231.677 44.0221 231.391 43.7619C231.104 43.493 230.671 43.3586 230.09 43.3586C229.699 43.3586 229.313 43.4193 228.932 43.5407C228.559 43.6621 228.242 43.8313 227.982 44.0481L227.344 42.8642C227.717 42.5779 228.16 42.3654 228.671 42.2266C229.192 42.0792 229.73 42.0054 230.285 42.0054C231.291 42.0054 232.067 42.2483 232.614 42.734C233.169 43.2111 233.446 43.9527 233.446 44.9589V49.0312H231.911ZM229.725 49.1223C229.205 49.1223 228.749 49.0356 228.359 48.8621C227.969 48.68 227.665 48.4328 227.448 48.1205C227.24 47.7996 227.136 47.4396 227.136 47.0406C227.136 46.6503 227.227 46.299 227.409 45.9867C227.6 45.6745 227.908 45.4273 228.333 45.2451C228.758 45.063 229.322 44.9719 230.024 44.9719H232.041V46.0518H230.142C229.586 46.0518 229.213 46.1429 229.023 46.325C228.832 46.4985 228.736 46.7153 228.736 46.9756C228.736 47.2705 228.854 47.5047 229.088 47.6781C229.322 47.8516 229.647 47.9383 230.064 47.9383C230.463 47.9383 230.818 47.8473 231.13 47.6651C231.451 47.483 231.681 47.2141 231.82 46.8585L232.093 47.8343C231.937 48.2419 231.655 48.5585 231.247 48.784C230.848 49.0096 230.341 49.1223 229.725 49.1223ZM235.638 46.0128L235.325 39.9237H237.251L236.926 46.0128H235.638ZM236.288 49.1223C235.985 49.1223 235.733 49.0226 235.534 48.8231C235.334 48.6236 235.234 48.385 235.234 48.1075C235.234 47.8299 235.334 47.5957 235.534 47.4049C235.733 47.2054 235.985 47.1057 236.288 47.1057C236.592 47.1057 236.839 47.2054 237.03 47.4049C237.221 47.5957 237.316 47.8299 237.316 48.1075C237.316 48.385 237.221 48.6236 237.03 48.8231C236.839 49.0226 236.592 49.1223 236.288 49.1223Z" fill="#898989"/>
<g clip-path="url(#clip0_555_4777)">
<path d="M31.3346 31.2137L31.3346 31.2137C31.3402 31.207 31.3439 31.2046 31.345 31.204C31.3462 31.2033 31.347 31.2029 31.3481 31.2027C31.3507 31.2021 31.3577 31.2015 31.3673 31.205C31.3768 31.2085 31.3818 31.2135 31.3834 31.2157C31.384 31.2165 31.3845 31.2173 31.3849 31.2186C31.3853 31.2198 31.3865 31.224 31.3865 31.2326V44.6036C29.7945 45.997 27.958 47.1175 25.9501 47.8928C26.306 45.0998 25.6811 41.9611 24.338 38.8828C24.6495 38.8646 24.9551 38.725 25.1763 38.4642L31.3346 31.2137Z" fill="url(#paint1_linear_555_4777)" stroke="#276DB2" stroke-width="0.918128"/>
<path d="M0.6875 30.8786C0.6875 41.202 9.05621 49.5706 19.3796 49.5706C21.4733 49.5706 23.4864 49.2263 25.3659 48.5916C26.0237 45.3037 25.1599 41.3796 23.2147 37.6011L17.4282 30.8962C17.1324 30.5534 16.5696 30.7625 16.5696 31.2155V44.6838C12.1715 44.5616 10.2168 41.263 10.2168 38.8196L10.3076 24.9225C7.8338 23.7569 5.18307 23.0372 2.4533 22.9375C1.32059 25.3477 0.6875 28.0391 0.6875 30.8786Z" fill="#276DB2"/>
<path d="M24.0756 29.0135L14.7175 18.9621L14.716 18.9605L14.7019 18.945C14.6901 18.9321 14.6734 18.9141 14.6521 18.8918C14.6097 18.8473 14.5487 18.7856 14.472 18.7129C14.3192 18.5682 14.1 18.3768 13.8351 18.1923C13.3268 17.8381 12.5516 17.4404 11.7261 17.5989C10.7794 17.7806 10.316 18.462 10.1005 19.0312C9.99297 19.3153 9.94047 19.5849 9.91442 19.7813C9.90128 19.8804 9.89458 19.963 9.89115 20.0225C9.88943 20.0523 9.88853 20.0764 9.88805 20.094L9.88761 20.1154L9.88754 20.1223L9.88753 20.1236L9.88753 20.1248L9.88753 20.1258L9.88753 20.1262L9.86081 24.2118C7.7393 23.2896 5.49303 22.6891 3.17976 22.5168C6.21137 16.6521 12.3317 12.6446 19.3872 12.6446C25.0927 12.6446 30.186 15.2647 33.53 19.369L24.4759 29.0143L24.4758 29.0143C24.3674 29.1299 24.1837 29.1295 24.0757 29.0135L24.0756 29.0135Z" fill="url(#paint2_linear_555_4777)" stroke="#276DB2" stroke-width="0.918128"/>
<path d="M35.5098 35.8861C35.5098 35.4814 35.8378 35.1533 36.2426 35.1533H41.0057C41.4105 35.1533 41.7385 35.4814 41.7385 35.8861V40.7714C41.7385 41.1762 41.4105 41.5042 41.0057 41.5042H36.2426C35.8378 41.5042 35.5098 41.1762 35.5098 40.7714V35.8861Z" fill="#89898A"/>
<path d="M36.4902 29.5287C36.4902 29.9334 36.8183 30.2615 37.223 30.2615H41.0091C41.4139 30.2615 41.7419 29.9334 41.7419 29.5287V25.7426C41.7419 25.3378 41.4139 25.0098 41.0091 25.0098H37.223C36.8183 25.0098 36.4902 25.3378 36.4902 25.7426V29.5287Z" fill="#89898A"/>
<path d="M41.7422 31.3687C41.7422 30.9639 42.0703 30.6357 42.4752 30.6357H45.0406C45.4454 30.6357 45.7735 30.9639 45.7735 31.3687V33.812C45.7735 34.2168 45.4454 34.5449 45.0406 34.5449H42.4752C42.0703 34.5449 41.7422 34.2168 41.7422 33.812V31.3687Z" fill="#89898A"/>
<path d="M42.2346 21.3506C41.8299 21.3506 41.502 21.6786 41.502 22.0832V23.5485C41.502 23.9532 41.8299 24.2812 42.2346 24.2812H43.5778C43.9825 24.2812 44.3105 23.9532 44.3105 23.5485V22.0832C44.3105 21.6786 43.9825 21.3506 43.5778 21.3506H42.2346Z" fill="#89898A"/>
</g>
<defs>
<linearGradient id="paint0_linear_555_4777" x1="54.9336" y1="23.8086" x2="253.934" y2="23.8086" gradientUnits="userSpaceOnUse">
<stop stop-color="#256AB0"/>
<stop offset="1" stop-color="#0057A2"/>
</linearGradient>
<linearGradient id="paint1_linear_555_4777" x1="19.2725" y1="47.7368" x2="26.6568" y2="32.4217" gradientUnits="userSpaceOnUse">
<stop stop-color="#174990"/>
<stop offset="1" stop-color="#0865AE"/>
</linearGradient>
<linearGradient id="paint2_linear_555_4777" x1="33.8033" y1="19.3936" x2="3.01637" y2="22.6922" gradientUnits="userSpaceOnUse">
<stop stop-color="#0086BE"/>
<stop offset="1" stop-color="#004C93"/>
</linearGradient>
<clipPath id="clip0_555_4777">
<rect width="53.2514" height="60.5965" fill="white" transform="translate(0.224609 0.460938)"/>
</clipPath>
</defs>
</svg>
