<svg width="333" height="341" viewBox="0 0 333 341" fill="none" xmlns="http://www.w3.org/2000/svg">
<path d="M153.777 292.18L171.499 282.092L185.677 283.455L196.856 292.998L205.308 294.089L203.127 300.36L205.308 301.178L198.219 315.083L185.405 324.353L179.951 335.532L172.862 339.622V334.442L176.952 331.17L171.772 324.353L155.958 315.083L152.959 317.264L145.87 308.539L139.871 309.357L153.777 292.18Z" fill="#0077FF" stroke="white" stroke-width="0.545311"/>
<path d="M215.122 285.911L214.304 273.096L208.851 272.551L206.67 275.277L197.945 272.823L190.856 276.641L192.219 278.004L172.861 275.277L171.225 282.094L185.675 283.457L196.854 293L205.307 294.091L203.125 300.362L205.307 301.18L212.941 295.727L215.122 285.911Z" fill="#0077FF" stroke="white" stroke-width="0.545311"/>
<path d="M91.6156 26.6249V28.2609L96.5234 29.3515L97.8867 54.7085L106.066 61.5248L107.157 51.1639L115.064 53.6178L118.336 44.6202L128.151 44.3475L128.969 35.6226L120.79 32.6234L118.336 20.6265L118.609 19.2632L121.88 11.9015L118.336 7.53905V0.722656H112.337L111.247 6.99373L93.2515 14.6281L91.6156 11.9015L77.4375 10.2656L84.2539 21.9898L91.6156 26.6249Z" fill="#0077FF" stroke="white" stroke-width="0.545311"/>
<path d="M68.9762 131.855L65.7043 134.036L61.3418 131.582L64.6137 128.038L71.1574 128.856L73.066 127.493H77.7011V123.948H83.6996L88.6074 116.041H94.8784L101.967 123.948L104.967 122.039L106.33 142.489L118.599 141.671L118.054 150.123L122.689 153.94L113.146 165.392L86.9714 154.485L79.8824 153.122L72.7933 145.215L74.4293 141.671L71.9754 138.399H73.3386V138.126L73.066 131.855H68.9762Z" fill="#0077FF" stroke="white" stroke-width="0.545311"/>
<path d="M175.585 196.202L178.311 208.199H178.038L172.04 197.838L161.406 200.292L152.409 195.929L143.957 201.11L138.776 201.655L137.958 198.928L132.505 195.929V187.749H117.782L113.146 165.392L122.689 153.94L118.054 150.123L118.6 141.671L106.33 142.489L104.967 122.039L105.239 121.494L132.505 122.585L134.414 110.588L146.138 127.765L200.669 132.128L196.306 140.853L194.67 177.661L180.765 188.022L175.585 196.202Z" fill="#0077FF" stroke="white" stroke-width="0.545311"/>
<path d="M279.2 237.648L279.745 231.377H274.292L272.111 227.287L269.657 228.923L268.566 235.739L262.023 238.466L246.754 240.92L248.662 245.555L269.93 246.1L272.656 240.102L279.2 237.648Z" fill="#0077FF" stroke="white" stroke-width="0.545311"/>
<path d="M164.139 268.183L167.411 255.641L176.953 242.826L192.222 242.554L196.312 245.553H205.582L209.399 260.549L215.943 261.094V264.094L221.396 266.002L214.307 273.091L208.854 272.546L206.673 275.272L197.948 272.818L190.859 276.636L192.222 277.999L172.864 275.272L169.864 268.183H164.139Z" fill="#0077FF" stroke="white" stroke-width="0.545311"/>
<path d="M228.524 186.419V176.383L237.408 178.522L249.583 170.46L272.451 179.18L276.235 184.115H288.245L282.652 197.442L285.942 203.693L277.716 206.161L279.361 216.362L274.919 223.765L272.451 222.613L271.629 227.549L269.161 229.359L268.338 235.775L261.757 238.572L246.786 241.04L234.447 247.456L230.827 240.711L233.624 232.156H228.03L224.575 220.804L208.946 223.601V220.31H207.465L201.707 219.817L197.265 220.804L196.936 216.197L198.91 209.616L216.514 206.161L220.956 208.136L225.727 202.871L223.424 197.771L223.588 196.619L228.524 186.419Z" fill="#0077FF" stroke="white" stroke-width="0.329044"/>
<path d="M96.1127 29.3387L91.4776 28.248L71.5737 39.9722L69.9378 36.7004L59.5768 39.4269L58.7589 30.9746L56.305 26.8848L48.6706 30.1566L49.2159 32.3379L35.5831 31.5199L36.6738 36.7004L42.1269 38.0636L42.9448 41.8808H33.9472V47.3339L39.4003 51.1511L37.7644 53.605L40.4909 57.1495L34.4925 84.1424L27.6761 82.5065L23.8589 86.5963H15.4066L8.86288 92.3221V103.228L1.22852 105.955L3.68242 108.954L36.1285 118.77L60.9401 131.584L64.212 128.04L70.7557 128.858L72.3917 127.495H77.2995V123.95H83.2979L88.2057 116.043H94.4768L101.566 123.95L104.838 121.496L132.103 122.587L134.012 110.317L130.467 104.864L149.826 65.3292L136.738 60.4214L127.741 49.7878V44.3347L117.925 44.6074L114.653 53.605L106.746 51.1511L105.656 61.512L97.476 54.6956L96.1127 29.3387Z" fill="#0077FF" stroke="white" stroke-width="0.545311"/>
<path d="M0.419922 111.406L3.41913 108.952L35.8652 118.768L60.9495 131.583L65.0393 134.036L52.4971 140.035L50.3159 138.672L47.3167 142.489H29.5941V129.129L17.3246 132.946H15.9613L6.96366 128.583L8.87225 124.494L0.419922 111.406Z" fill="#0077FF" stroke="white" stroke-width="0.545311"/>
<path d="M143.568 201.111L138.387 201.657L138.66 206.019L138.115 209.291L135.934 220.47L132.389 221.833L135.934 227.014V238.738L147.658 240.101L153.656 238.192L157.201 254.279L158.019 254.552L163.744 252.916L167.016 255.915L176.559 242.555L178.195 240.646L183.648 238.192L190.192 224.014L194.827 221.015L197.281 220.47L197.008 216.107L178.195 209.291L171.924 197.839L161.018 200.293L152.02 195.931L143.568 201.111Z" fill="#0077FF"/>
<path d="M112.758 165.666L117.393 187.751H132.116V195.931L137.569 198.93L138.387 201.657M138.387 201.657L143.568 201.111L152.02 195.931L161.018 200.293L171.924 197.839L178.195 209.291L197.008 216.107L197.281 220.47L194.827 221.015L190.192 224.014L183.648 238.192L178.195 240.646L176.559 242.555L167.016 255.915L163.744 252.916L158.019 254.552L157.201 254.279L153.656 238.192L147.658 240.101L135.934 238.738V227.014L132.389 221.833L135.934 220.47L138.115 209.291L138.66 206.019L138.387 201.657Z" stroke="white" stroke-width="0.545311"/>
<path d="M141.389 29.0644L128.574 35.8808L127.756 49.7863L136.753 60.4198L149.841 65.3276L130.482 104.863L145.751 127.766L200.01 132.128L207.644 115.224L209.825 107.044L217.732 97.501L215.551 91.2299L224.003 86.0495L234.91 57.148L221.822 51.4222L215.551 52.5128L216.369 48.423L205.463 43.5152L202.736 45.1511L201.646 44.0605V41.0613H200.555L198.374 45.4238L192.375 47.605L188.558 57.6933H183.923L172.744 34.7902L162.383 32.3363L162.11 25.7926L152.568 24.9746L155.021 31.2457L141.389 29.0644Z" fill="#0077FF" stroke="white" stroke-width="0.545311"/>
<path d="M171.366 25.8019H162.096L162.368 32.3456L172.729 34.7996L183.908 57.7026H188.543L192.36 47.6144L198.359 45.4331L200.54 41.0706L201.358 41.3433H201.903L204.085 32.3456L198.632 26.8925L196.723 28.5285L192.36 16.5316L189.907 7.80664L189.361 13.2598L182 20.6215L180.364 29.0738H179.546L173.275 26.6199H171.639L171.366 25.8019Z" fill="#0077FF" stroke="white" stroke-width="0.545311"/>
<path d="M201.37 154.488L195.372 158.033L195.099 158.851L194.281 177.664L180.376 188.025L175.195 196.205L177.922 207.656L178.467 209.019L196.735 215.836L198.916 209.292L216.639 205.748L221.001 207.656L225.637 202.476L223.455 197.568V196.477L228.363 186.116V176.028L237.361 178.209L233.544 158.578L217.457 162.395L209.823 158.305L208.187 161.577L200.552 158.305L201.37 154.488Z" fill="#0077FF" stroke="white" stroke-width="0.545311"/>
<path d="M241.446 60.4191L235.175 57.4199H234.903L223.996 86.0488L215.271 91.2292L224.814 94.5011L223.724 109.225L228.086 117.132L232.176 115.223L232.721 118.495L227.814 125.857L233.812 135.399H238.175V127.765L236.539 123.13L241.446 111.951L255.625 104.317H263.532L260.805 95.5917L264.349 91.2292L262.441 82.7769L267.076 76.2332H269.803V75.1425L271.439 69.4168L256.715 66.1449L252.898 69.9621L245.264 58.2379L241.446 60.4191Z" fill="#0077FF" stroke="white" stroke-width="0.545311"/>
<path d="M274.434 72.4219L271.435 69.6953L269.799 75.1484V76.239H267.073L262.437 82.7828L264.346 91.2351L260.802 95.5976L263.528 104.323H255.621L241.443 111.957L236.535 123.136L238.171 127.771V135.133L240.898 135.405L243.079 141.676L250.713 138.677L252.622 138.95L256.712 132.133L254.53 129.68L258.348 127.498L267.618 128.589L282.614 116.319L280.978 111.957L283.432 107.049L279.615 99.6874L280.705 91.5078L276.07 86.8726L276.888 72.1492L274.434 72.4219Z" fill="#0077FF" stroke="white" stroke-width="0.545311"/>
<path d="M288.352 71.0547L276.9 72.1453L276.082 86.8687L280.717 91.5039L279.627 99.6835L283.444 107.318L282.353 109.499L291.078 110.317L295.168 114.407L299.258 110.862L298.985 100.229L310.982 89.8679L288.352 71.0547Z" fill="#0077FF" stroke="white" stroke-width="0.545311"/>
<path d="M325.976 91.5021L310.98 89.8662L298.984 100.227L299.256 110.861L297.348 112.769L304.164 113.86L310.435 109.225L313.162 111.406L310.435 116.314L311.253 119.858L317.252 115.223L325.976 110.588L331.43 111.679L331.975 104.862L326.522 91.7748L325.976 91.5021Z" fill="#0077FF" stroke="white" stroke-width="0.545311"/>
<path d="M330.06 121.223L331.423 111.68L325.97 110.59L316.972 115.498L311.246 119.587L310.428 116.043L313.155 111.408L310.428 109.227L303.885 113.862L297.341 112.771L295.16 114.407L290.797 110.317L282.072 109.499L280.982 111.953L282.618 116.316L276.619 121.496L281.254 128.858L291.343 121.223L302.249 127.494L306.339 123.677L311.519 127.494H316.972L322.425 123.405L327.606 123.677L330.06 121.223Z" fill="#0077FF" stroke="white" stroke-width="0.545311"/>
<path d="M321.07 131.584L327.614 123.677L322.434 123.404L316.98 127.494H311.527L306.347 123.677L301.984 127.494L305.529 138.4L301.984 140.036L304.438 146.58L308.528 147.943L312.618 139.218L321.07 135.674V131.584Z" fill="#0077FF" stroke="white" stroke-width="0.545311"/>
<path d="M304.435 156.122L308.524 147.669L304.435 146.579L301.981 140.035L305.525 138.399L301.708 127.22L291.347 121.222L281.259 128.856L276.624 121.494L267.626 128.583L258.356 127.493L254.539 129.674L256.72 132.128L252.63 138.944L250.721 138.672L243.087 141.671L240.906 135.4H237.634L231.908 143.852L233.544 158.576L237.361 178.207L249.631 170.3L272.261 178.752L276.351 183.933H288.075L282.622 197.02L285.894 203.291L290.802 206.018L296.528 199.474V161.302L304.435 156.122Z" fill="#0077FF" stroke="white" stroke-width="0.545311"/>
<path d="M217.726 97.5082L215.818 91.5098L224.815 94.509L223.725 109.232L228.087 117.139L232.177 115.231L232.722 118.503L227.814 125.864L233.813 135.407H237.63L231.904 143.86L233.54 158.583L217.453 162.4L209.819 158.31L208.183 161.582L200.549 158.31L201.094 154.766L195.096 158.31L195.914 140.86L200.276 132.135L207.638 115.231L209.819 107.051L217.726 97.5082Z" fill="#0077FF" stroke="white" stroke-width="0.545311"/>
<path d="M290.522 216.382C290.613 213.02 290.74 206.185 290.522 205.749L285.887 203.295L277.707 205.749L279.343 215.837L274.708 223.471L272.527 222.381L271.709 227.289L273.89 231.378H279.616V227.834L290.522 216.382Z" fill="#0077FF" stroke="white" stroke-width="0.545311"/>
<path d="M241.448 252.918L248.264 245.557L246.356 240.922L234.359 247.193L230.814 240.376L233.541 231.924H228.088L224.543 220.472L209.002 223.199V219.927H207.366L201.64 219.382L197.55 220.472L194.551 221.018L190.189 224.017L183.645 238.195L177.919 240.649L176.283 242.83L191.825 242.558L195.914 245.557H205.185L209.002 260.553L215.546 261.098V264.097L220.726 266.006L227.542 259.462L241.448 252.918Z" fill="#0077FF" stroke="white" stroke-width="0.545311"/>
</svg>
