<svg width="105" height="104" viewBox="0 0 105 104" fill="none" xmlns="http://www.w3.org/2000/svg">
<path d="M100.005 55.7429C99.2783 64.8731 95.9477 73.6029 90.4084 80.8951C84.869 88.1873 77.3538 93.7353 68.7556 96.8801C60.1574 100.025 50.8376 100.634 41.9035 98.6357C32.9693 96.6372 24.7964 92.1148 18.3556 85.6058C11.9148 79.0969 7.47696 70.875 5.56927 61.917C3.66158 52.9589 4.36424 43.6413 7.59377 35.071C10.8233 26.5007 16.444 19.0381 23.788 13.5697C31.132 8.10125 39.8906 4.85694 49.0234 4.22217" stroke="white" stroke-width="7.73397" stroke-linecap="round" stroke-linejoin="round"/>
<path d="M72.8583 59.9667C71.5298 63.3876 69.37 66.4233 66.5741 68.7992C63.7782 71.1752 60.4345 72.8164 56.8453 73.5745C53.2561 74.3325 49.5346 74.1836 46.0174 73.1411C42.5002 72.0985 39.2982 70.1953 36.701 67.6035C34.1038 65.0118 32.1932 61.8132 31.1421 58.297C30.0911 54.7808 29.9326 51.0579 30.6811 47.4651C31.4296 43.8722 33.0614 40.5227 35.429 37.7194C37.7966 34.9161 40.8252 32.7474 44.2411 31.4095M52.3334 51.9442L70.7248 33.5439M70.7248 33.5439L85.438 37.224L100.151 22.5038L85.438 18.8237L81.7597 4.10352L67.0466 18.8237L70.7248 33.5439Z" stroke="white" stroke-width="7.73397" stroke-linecap="round" stroke-linejoin="round"/>
</svg>
