<svg width="29" height="29" viewBox="0 0 29 29" fill="none" xmlns="http://www.w3.org/2000/svg">
<mask id="mask0_337_2759" style="mask-type:luminance" maskUnits="userSpaceOnUse" x="0" y="0" width="29" height="29">
<path d="M28.4308 0.538452H0.0722656V28.8969H28.4308V0.538452Z" fill="white"/>
</mask>
<g mask="url(#mask0_337_2759)">
<path fill-rule="evenodd" clip-rule="evenodd" d="M12.0005 22.206C6.42634 22.206 1.9076 17.7662 1.9076 12.2807C1.9076 6.79504 6.42634 2.34634 12.0005 2.34634C17.5748 2.34634 22.0945 6.79504 22.0945 12.2807C22.0945 17.7662 17.5748 22.206 12.0005 22.206ZM28.1542 27.3461L20.8351 20.1412C22.7511 18.0587 23.9289 15.3114 23.9289 12.2807C23.9289 5.79363 18.5885 0.538452 12.0005 0.538452C5.41252 0.538452 0.0722656 5.79363 0.0722656 12.2807C0.0722656 18.7588 5.41252 24.014 12.0005 24.014C14.847 24.014 17.4578 23.0303 19.5085 21.3908L26.8569 28.6222C27.2158 28.9767 27.7962 28.9767 28.1542 28.6222C28.5131 28.2766 28.5131 27.7006 28.1542 27.3461Z" fill="white"/>
</g>
</svg>
