<svg width="17" height="17" viewBox="0 0 17 17" fill="none" xmlns="http://www.w3.org/2000/svg">
<mask id="mask0_728_2298" style="mask-type:luminance" maskUnits="userSpaceOnUse" x="0" y="0" width="17" height="17">
<path d="M17 0H0V17H17V0Z" fill="white"/>
</mask>
<g mask="url(#mask0_728_2298)">
<path d="M7.15039 0.5C10.831 0.5 13.8017 3.43387 13.8018 7.03906C13.8018 8.72276 13.1481 10.2511 12.0791 11.4131L11.751 11.7686L12.0957 12.1074L16.4814 16.4258H16.4824C16.4923 16.4355 16.4955 16.4461 16.4951 16.4551L16.4873 16.4756L16.4824 16.4805C16.4679 16.4947 16.4449 16.4985 16.4258 16.4912L16.4082 16.4795L16.4072 16.4785L12.002 12.1436L11.6855 11.833L11.3389 12.1094C10.1953 13.0236 8.73966 13.5732 7.15039 13.5732C3.4696 13.5731 0.5 10.6386 0.5 7.03906C0.500014 3.43394 3.46986 0.500116 7.15039 0.5ZM7.15039 0.583984C3.54027 0.5841 0.6006 3.46713 0.600586 7.03906C0.600586 10.6115 3.54085 13.4891 7.15039 13.4893C10.76 13.4893 13.7012 10.6117 13.7012 7.03906C13.7012 3.467 10.7606 0.583984 7.15039 0.583984Z" fill="#4B4B4B" stroke="#747474"/>
</g>
</svg>
