<svg width="19" height="19" viewBox="0 0 19 19" fill="none" xmlns="http://www.w3.org/2000/svg">
<mask id="mask0_337_1740" style="mask-type:luminance" maskUnits="userSpaceOnUse" x="0" y="0" width="19" height="19">
<path d="M19 0H0V19H19V0Z" fill="white"/>
</mask>
<g mask="url(#mask0_337_1740)">
<path fill-rule="evenodd" clip-rule="evenodd" d="M7.99186 14.5171C4.25719 14.5171 1.22966 11.5425 1.22966 7.86722C1.22966 4.19187 4.25719 1.21127 7.99186 1.21127C11.7266 1.21127 14.7547 4.19187 14.7547 7.86722C14.7547 11.5425 11.7266 14.5171 7.99186 14.5171ZM18.8147 17.9609L13.911 13.1337C15.1947 11.7384 15.9838 9.89778 15.9838 7.86722C15.9838 3.52094 12.4058 0 7.99186 0C3.57794 0 0 3.52094 0 7.86722C0 12.2075 3.57794 15.7284 7.99186 15.7284C9.899 15.7284 11.6482 15.0694 13.0221 13.9709L17.9455 18.8159C18.186 19.0534 18.5749 19.0534 18.8147 18.8159C19.0552 18.5844 19.0552 18.1984 18.8147 17.9609Z" fill="#004C93"/>
</g>
</svg>
