<svg width="111" height="77" viewBox="0 0 111 77" fill="none" xmlns="http://www.w3.org/2000/svg">
<path d="M90.1509 0.721191C86.3907 4.32166 81.9177 7.09331 77.0206 8.85728C71.8569 9.76896 57.5669 3.13853 50.5254 9.90709C49.3518 11.0812 47.9021 12.2554 46.3834 13.4295C43.0697 11.9791 37.9612 9.76896 34.2334 7.62788C30.5055 5.48681 21.1169 0.721191 21.1169 0.721191L0.406738 24.8946C0.406738 24.8946 5.51525 31.8013 8.69081 36.3597C10.7618 39.3987 13.3161 44.0262 14.9729 47.1342L12.6257 49.8968C12.0637 51.014 11.8614 52.2779 12.0469 53.5148C12.2323 54.7516 12.7963 55.9006 13.6613 56.8035C14.6596 57.5524 15.8744 57.956 17.1222 57.9535C18.37 57.951 19.5831 57.5425 20.5785 56.7897C20.2094 57.2221 19.9301 57.7236 19.7568 58.2651C19.5835 58.8066 19.5197 59.3772 19.5692 59.9436C19.6187 60.51 19.7804 61.0609 20.045 61.5641C20.3095 62.0673 20.6716 62.5128 21.11 62.8745C22.1642 63.4905 23.3635 63.8139 24.5843 63.8115C25.8051 63.8091 27.0031 63.4809 28.0548 62.8607C27.2661 63.8443 26.8345 65.0667 26.8307 66.3277C26.827 67.5887 27.2513 68.8136 28.0341 69.8019C29.0518 70.1544 30.1371 70.2667 31.2053 70.1301C32.2735 69.9936 33.2956 69.6118 34.192 69.0146C33.7454 70.072 33.6297 71.24 33.8602 72.3645C34.0907 73.489 34.6564 74.5172 35.4829 75.3135C36.6503 75.8325 37.9303 76.0464 39.2029 75.9353C40.4756 75.8241 41.6992 75.3915 42.7591 74.6781L46.3212 71.4526C49.5796 74.6988 54.0737 76.7086 59.0373 76.7086L59.4584 76.7017C61.0941 76.562 62.6611 75.9798 63.9914 75.0175C65.3218 74.0551 66.3655 72.7488 67.0107 71.2385C68.0186 71.6253 69.1646 71.8877 70.3796 71.8877C72.0088 71.8877 73.5206 71.4181 74.7977 70.61C78.8362 67.9371 77.8698 65.8651 77.8698 65.8651C79.3058 66.4836 80.9009 66.6302 82.4255 66.2839C83.9502 65.9376 85.3256 65.1163 86.354 63.9381C87.4227 62.8444 88.0965 61.4255 88.2691 59.9058C88.4416 58.3861 88.1029 56.8522 87.3067 55.5465C87.3503 55.5726 87.4009 55.5846 87.4517 55.581C90.358 55.581 92.8846 53.9787 94.2032 51.6166C94.852 49.9378 95.0713 48.1233 94.841 46.3382C94.6108 44.553 93.9382 42.8537 92.8846 41.3947L92.9053 41.4292C98.5661 40.3242 98.359 37.4924 101.12 33.3484C103.735 29.9667 106.988 27.1319 110.695 25.0051L90.1509 0.721191ZM89.8057 49.4824C86.7682 52.5214 84.4211 51.2091 79.2435 47.2723C74.066 43.3355 63.7799 35.9453 63.7799 35.9453C64.201 38.0519 65.1744 39.8821 66.5482 41.3394C68.7504 43.8189 75.3086 49.4824 78.4151 52.3833C80.3481 54.179 85.3185 57.7705 82.4191 60.5331C79.5197 63.2958 77.2415 60.5331 72.4782 56.6654C67.7148 52.7977 57.0836 43.2664 57.0836 43.2664C57.0251 44.1801 57.1609 45.0957 57.4822 45.9529C57.8035 46.8102 58.3029 47.5894 58.9475 48.2392C60.1211 49.6206 66.6793 55.9747 69.4407 58.8755C72.2021 61.7764 74.6182 63.503 72.2711 65.7822C69.9239 68.0614 65.1606 64.47 62.5373 61.7764C58.4643 57.8395 50.3873 50.5184 50.3873 50.5184L50.3804 50.8845C50.3804 52.846 51.057 54.6417 52.196 56.0645C54.1842 58.6752 58.0501 62.0595 60.3972 64.6841C62.7444 67.3086 64.1251 69.5188 60.3972 71.5908C56.6694 73.6628 51.1467 68.5518 48.7305 66.0654V66.0516C48.731 65.3694 48.4859 64.7099 48.0402 64.1937C47.2144 63.4284 46.1956 62.903 45.0934 62.6742C43.9913 62.4454 42.8476 62.5218 41.7857 62.8952C42.2226 62.5039 42.5729 62.0254 42.8139 61.4905C43.055 60.9556 43.1816 60.3762 43.1855 59.7895C43.1894 59.2028 43.0705 58.6217 42.8366 58.0837C42.6027 57.5457 42.2588 57.0626 41.8271 56.6654C40.9209 55.9785 39.8149 55.6073 38.678 55.6086C37.5411 55.6098 36.4359 55.9834 35.5312 56.6723C35.9887 56.2352 36.3418 55.7005 36.5644 55.1081C36.7869 54.5156 36.8732 53.8807 36.8169 53.2503C36.7605 52.6199 36.5629 52.0103 36.2387 51.4668C35.9146 50.9234 35.4722 50.4599 34.9444 50.111C33.7086 49.3341 32.2585 48.969 30.8023 49.0683C29.3461 49.1676 27.9589 49.7261 26.8398 50.6635C27.5878 49.7566 27.9565 48.5956 27.869 47.4231C27.7815 46.2506 27.2446 45.1573 26.3704 44.3715C25.2839 43.3597 23.8993 42.7269 22.4236 42.5675C20.9479 42.4082 19.4602 42.7309 18.183 43.4874L13.5922 35.7312C10.4167 30.6893 6.68883 25.4402 6.68883 25.4402L22.4286 6.30871C22.4286 6.30871 28.0203 9.76205 32.6456 12.3866C34.9237 13.6989 38.8587 15.4255 41.8271 16.8069C37.1328 20.3293 33.1979 23.7136 34.3714 26.0618C36.4629 27.5639 38.9622 28.3924 41.5363 28.4368C44.1104 28.4812 46.6369 27.7395 48.7788 26.3105C51.5252 24.4839 54.7522 23.5151 58.0501 23.5271C60.4456 23.5271 62.7237 24.0244 64.7878 24.9292C68.6123 27.5123 75.6537 33.8664 82.0739 37.8723C90.1509 43.743 91.7387 47.5417 89.8057 49.4755V49.4824Z" fill="white"/>
</svg>
