<svg width="27" height="26" viewBox="0 0 27 26" fill="none" xmlns="http://www.w3.org/2000/svg">
<path d="M22.5195 3.72009C25.0937 6.20015 26.3808 9.19022 26.3808 12.6903C26.3808 16.1904 25.0937 19.1805 22.5195 21.6605C19.9452 24.1406 16.8458 25.3806 13.2213 25.3806C10.9972 25.3806 8.91718 24.8606 6.98135 23.8206L0 25.5606L1.85346 19.0205C0.700194 17.0604 0.123564 14.9404 0.123564 12.6603C0.123564 9.18022 1.40039 6.20015 3.95404 3.72009C6.50769 1.24003 9.59678 0 13.2213 0C16.8458 0 19.9452 1.24003 22.5195 3.72009ZM13.2213 23.2206C16.228 23.2206 18.8023 22.1905 20.944 20.1305C23.0858 18.0704 24.1567 15.5804 24.1567 12.6603C24.1567 9.74024 23.0858 7.25018 20.944 5.19013C18.8023 3.13008 16.228 2.10005 13.2213 2.10005C10.2146 2.10005 7.65065 3.13008 5.52947 5.19013C3.4083 7.25018 2.34771 9.74024 2.34771 12.6603C2.34771 14.7004 2.90375 16.5804 4.01582 18.3004L4.26295 18.6605L3.15087 22.5606L7.29026 21.5405L7.66095 21.7205C9.39084 22.7206 11.2443 23.2206 13.2213 23.2206ZM19.2141 15.3004C19.5848 15.5004 19.7908 15.6404 19.832 15.7204C19.9967 15.9604 19.9349 16.4604 19.6466 17.2204C19.5231 17.5404 19.2141 17.8504 18.7199 18.1504C18.2256 18.4505 17.7932 18.6405 17.4225 18.7205C16.6811 18.8005 16.0015 18.7605 15.3837 18.6005C14.6835 18.3604 14.0657 18.1404 13.5302 17.9404C13.2007 17.7804 12.8815 17.6104 12.5726 17.4304C12.2637 17.2504 11.9651 17.0704 11.6768 16.8904C11.3885 16.7104 11.1207 16.5204 10.8736 16.3204C10.6265 16.1204 10.3896 15.9204 10.1631 15.7204C9.93658 15.5204 9.72034 15.3104 9.5144 15.0904C9.30846 14.8704 9.13342 14.6804 8.98926 14.5204C8.8451 14.3604 8.70094 14.1903 8.55678 14.0103C8.41263 13.8303 8.29936 13.6903 8.21698 13.5903C8.13461 13.4903 8.06253 13.3903 8.00075 13.2903L7.90807 13.1403C7.00194 11.9803 6.54887 10.8803 6.54887 9.84024C6.54887 8.88022 6.94016 8.0002 7.72273 7.20018C7.96986 6.92017 8.25817 6.78017 8.58768 6.78017C8.8348 6.78017 9.04074 6.80017 9.20549 6.84017C9.535 6.84017 9.78212 7.02017 9.94688 7.38018C10.0293 7.50018 10.1528 7.76019 10.3176 8.1602L10.75 9.21023L10.9354 9.72024C11.0589 9.92024 11.0795 10.1002 10.9972 10.2603C10.8736 10.5403 10.7706 10.7203 10.6883 10.8003L10.5029 10.9803L10.3176 11.1903L10.194 11.3403C9.94687 11.5803 9.88509 11.8003 10.0087 12.0003C10.5441 12.8803 11.1619 13.6203 11.8621 14.2203C12.3976 14.6604 13.2831 15.1804 14.5187 15.7804C14.807 15.9004 15.0336 15.8804 15.1983 15.7204C15.6926 15.1204 16.0427 14.7004 16.2486 14.4604C16.4134 14.2203 16.6605 14.1603 16.99 14.2803C17.2371 14.4004 17.9785 14.7404 19.2141 15.3004Z" fill="white"/>
</svg>
